M48
FMAT,1
INCH
T01C000.01500
T02C000.03500
T03C000.04331
T04C000.12205
T05C000.12500
%
G81
M70
T01
X00014854Y01426800
X00016654Y01354100
X00019254Y01166700
X00032854Y01113500
X00036654Y01196300
X00036854Y01339300
X00037054Y01212300
X00039054Y01321500
X00040254Y01427500
X00040254Y01443900
X00040454Y01174100
X00040454Y01414900
X00049358Y01065096
X00068854Y01426800
X00099654Y01126500
X00111054Y01246600
X00112431Y01285400
X00113054Y01165900
X00113054Y01176900
X00113054Y01180500
X00118054Y01256800
X00120054Y01214700
X00128654Y01162300
X00131654Y01192700
X00195254Y01370700
X00211454Y01296300
X00236854Y01305100
X00244654Y01280500
X00247654Y01193900
X00251654Y01280900
X00256454Y01195500
X00265454Y01338700
T02
X00127012Y01119202
X00127012Y01129202
X00137012Y01119202
X00137012Y01129202
X00146412Y01410002
X00146412Y01420002
X00147012Y01119202
X00147012Y01129202
X00156412Y01410002
X00156412Y01420002
X00157012Y01119202
X00157012Y01129202
X00166412Y01410002
X00166412Y01420002
X00167012Y01119202
X00167012Y01129202
X00176412Y01410002
X00176412Y01420002
X00177012Y01119202
X00177012Y01129202
X00186412Y01410002
X00186412Y01420002
X00196412Y01410002
X00196412Y01420002
X00206412Y01410002
X00206412Y01420002
X00283212Y01161202
X00283212Y01171202
X00283212Y01181202
X00283212Y01191202
X00283212Y01201202
X00283212Y01211202
X00283212Y01221202
X00283212Y01231202
X00283212Y01241202
X00283212Y01251202
X00283212Y01261202
X00283212Y01271202
X00283212Y01281202
X00283212Y01291202
X00283212Y01301202
X00283212Y01311202
X00283212Y01321202
X00283212Y01331202
X00283212Y01341202
X00283212Y01351202
X00283212Y01361202
X00283212Y01371202
X00293212Y01161202
X00293212Y01171202
X00293212Y01181202
X00293212Y01191202
X00293212Y01201202
X00293212Y01211202
X00293212Y01221202
X00293212Y01231202
X00293212Y01241202
X00293212Y01251202
X00293212Y01261202
X00293212Y01271202
X00293212Y01281202
X00293212Y01291202
X00293212Y01301202
X00293212Y01311202
X00293212Y01321202
X00293212Y01331202
X00293212Y01341202
X00293212Y01351202
X00293212Y01361202
X00293212Y01371202
T03
X00016366Y01063046
X00016366Y01088046
X00032862Y01063046
X00032862Y01088046
X00049358Y01063046
X00049358Y01088046
X00065854Y01063046
X00065854Y01088046
X00082350Y01063046
X00082350Y01088046
X00098846Y01063046
X00098846Y01088046
X00232662Y01063046
X00232662Y01088046
X00249158Y01063046
X00249158Y01088046
X00265654Y01063046
X00265654Y01088046
X00282150Y01063046
X00282150Y01088046
X00298646Y01063046
X00298646Y01088046
X00315142Y01063046
X00315142Y01088046
T04
X00165654Y01070762
T05
X00055612Y01125778
X00055612Y01383278
X00239612Y01125778
X00239612Y01383278
M30
