G04 GENERATED BY PULSONIX 12.5 GERBER.DLL 9362*
G04 #@! TF.GenerationSoftware,Pulsonix,Pulsonix,12.5.9360*
G04 #@! TF.CreationDate,2023-08-16T02:30:59+04:00*
G04 #@! TF.Part,Single*
%INCOMPARATOR INTERFACE V2*%
%LNBOTTOM SILKSCREEN*%
%FSLAX35Y35*%
%LPD*%
%MOIN*%
G04 #@! TF.FileFunction,Legend,Bot*
G04 #@! TF.FilePolarity,Positive*
G04 #@! TA.AperFunction,Material*
%ADD11C,0.00800*%
%ADD13C,0.00787*%
G04 #@! TD.AperFunction*
%ADD14C,0.00500*%
%ADD23C,0.00700*%
G04 #@! TA.AperFunction,Profile*
%ADD163C,0.00600*%
G04 #@! TD.AperFunction*
%ADD164C,0.00492*%
G04 #@! TD.AperFunction*
X0Y0D02*
D02*
D11*
X126162Y1405002D02*
Y1425502D01*
X225662D01*
Y1405002D01*
X126162D01*
X157012Y1144202D02*
Y1134202D01*
X137012D01*
Y1144202D01*
X157012D01*
G36*
X157012Y1144202D02*
Y1134202D01*
X137012D01*
Y1144202D01*
X157012D01*
G37*
X166412Y1395002D02*
Y1405002D01*
X186412D01*
Y1395002D01*
X166412D01*
G36*
X166412Y1395002D02*
Y1405002D01*
X186412D01*
Y1395002D01*
X166412D01*
G37*
X197262Y1134202D02*
Y1113702D01*
X107262D01*
Y1134202D01*
X197262D01*
X300712Y1384952D02*
Y1147452D01*
X275712D01*
Y1384952D01*
X300712D01*
X558054Y1527900D02*
Y400D01*
D02*
D13*
X105776Y1099955D02*
X9437D01*
Y1051973D01*
X105776D01*
Y1099955D01*
X225733Y1051136D02*
X322072D01*
Y1099119D01*
X225733D01*
Y1051136D01*
D02*
D14*
X293871Y1387773D02*
X294165Y1387478D01*
X294753Y1387184D01*
X295636D01*
X296224Y1387478D01*
X296518Y1387773D01*
X296812Y1388361D01*
Y1389537D01*
X296518Y1390126D01*
X296224Y1390420D01*
X295636Y1390714D01*
X294753D01*
X294165Y1390420D01*
X293871Y1390126D01*
X292762Y1388361D02*
X292762Y1389537D01*
X292468Y1390126D01*
X292174Y1390420D01*
X291586Y1390714D01*
X290998D01*
X290409Y1390420D01*
X290115Y1390126D01*
X289821Y1389537D01*
Y1388361D01*
X290115Y1387773D01*
X290409Y1387478D01*
X290998Y1387184D01*
X291586D01*
X292174Y1387478D01*
X292468Y1387773D01*
X292762Y1388361D01*
X288712Y1387184D02*
X288712Y1390714D01*
X285771Y1387184D01*
Y1390714D01*
X284662Y1387184D02*
X284662Y1390714D01*
X281721Y1387184D01*
Y1390714D01*
X280024Y1387184D02*
X278848Y1387184D01*
X279436D02*
X279436Y1390714D01*
X280024Y1390126D01*
D02*
D23*
X204753Y1124731D02*
X204459Y1125026D01*
X203871Y1125320D01*
X202989D01*
X202400Y1125026D01*
X202106Y1124731D01*
X201812Y1124143D01*
Y1122967D01*
X202106Y1122378D01*
X202400Y1122084D01*
X202989Y1121790D01*
X203871D01*
X204459Y1122084D01*
X204753Y1122378D01*
X205862Y1124143D02*
X205862Y1122967D01*
X206156Y1122378D01*
X206450Y1122084D01*
X207039Y1121790D01*
X207627D01*
X208215Y1122084D01*
X208509Y1122378D01*
X208803Y1122967D01*
Y1124143D01*
X208509Y1124731D01*
X208215Y1125026D01*
X207627Y1125320D01*
X207039D01*
X206450Y1125026D01*
X206156Y1124731D01*
X205862Y1124143D01*
X209912Y1125320D02*
X209912Y1121790D01*
X212853Y1125320D01*
Y1121790D01*
X213962Y1125320D02*
X213962Y1121790D01*
X216903Y1125320D01*
Y1121790D01*
X218306Y1125026D02*
X218895Y1125320D01*
X219483D01*
X220071Y1125026D01*
X220365Y1124437D01*
X220071Y1123849D01*
X219483Y1123555D01*
X218895D01*
X219483D02*
X220071Y1123261D01*
X220365Y1122673D01*
X220071Y1122084D01*
X219483Y1121790D01*
X218895D01*
X218306Y1122084D01*
X205971Y1399273D02*
X206265Y1398978D01*
X206853Y1398684D01*
X207736D01*
X208324Y1398978D01*
X208618Y1399273D01*
X208912Y1399861D01*
Y1401037D01*
X208618Y1401626D01*
X208324Y1401920D01*
X207736Y1402214D01*
X206853D01*
X206265Y1401920D01*
X205971Y1401626D01*
X204862Y1399861D02*
X204862Y1401037D01*
X204568Y1401626D01*
X204274Y1401920D01*
X203686Y1402214D01*
X203098D01*
X202509Y1401920D01*
X202215Y1401626D01*
X201921Y1401037D01*
Y1399861D01*
X202215Y1399273D01*
X202509Y1398978D01*
X203098Y1398684D01*
X203686D01*
X204274Y1398978D01*
X204568Y1399273D01*
X204862Y1399861D01*
X200812Y1398684D02*
X200812Y1402214D01*
X197871Y1398684D01*
Y1402214D01*
X196762Y1398684D02*
X196762Y1402214D01*
X193821Y1398684D01*
Y1402214D01*
X190359Y1398684D02*
X192712Y1398684D01*
X190653Y1400743D01*
X190359Y1401331D01*
X190653Y1401920D01*
X191242Y1402214D01*
X192124D01*
X192712Y1401920D01*
D02*
D163*
X26284Y1453600D02*
X303450D01*
X331009Y1426041D01*
Y1053600D01*
X300D01*
Y1427616D01*
X26284Y1453600D01*
D02*
D164*
X27944Y1102552D02*
X27944Y1106025D01*
X26207D01*
X25628Y1105736D01*
X25338Y1105446D01*
X25049Y1104867D01*
Y1103709D01*
X25338Y1103131D01*
X25628Y1102841D01*
X26207Y1102552D01*
X27944D01*
X23379D02*
X22221Y1102552D01*
X22800D02*
X22800Y1106025D01*
X23379Y1105446D01*
X18295Y1102552D02*
X20611Y1102552D01*
X18585Y1104578D01*
X18295Y1105157D01*
X18585Y1105736D01*
X19164Y1106025D01*
X20032D01*
X20611Y1105736D01*
X17265Y1103709D02*
X14949Y1103709D01*
X13918Y1102552D02*
X12471Y1106025D01*
X11023Y1102552D01*
X13339Y1103999D02*
X11602Y1103999D01*
X320142Y1101927D02*
X320142Y1105400D01*
X318406D01*
X317827Y1105111D01*
X317537Y1104821D01*
X317248Y1104242D01*
Y1103084D01*
X317537Y1102506D01*
X317827Y1102216D01*
X318406Y1101927D01*
X320142D01*
X315577D02*
X314419Y1101927D01*
X314998D02*
X314998Y1105400D01*
X315577Y1104821D01*
X310494Y1101927D02*
X312810Y1101927D01*
X310783Y1103953D01*
X310494Y1104532D01*
X310783Y1105111D01*
X311362Y1105400D01*
X312231D01*
X312810Y1105111D01*
X309463Y1103084D02*
X307147Y1103084D01*
X304090Y1103663D02*
X303511Y1103374D01*
X303222Y1102795D01*
X303511Y1102216D01*
X304090Y1101927D01*
X306117D01*
Y1105400D01*
X304090D01*
X303511Y1105111D01*
X303222Y1104532D01*
X303511Y1103953D01*
X304090Y1103663D01*
X306117D01*
X0Y0D02*
M02*
