G04 GENERATED BY PULSONIX 12.5 GERBER.DLL 9362*
G04 #@! TF.GenerationSoftware,Pulsonix,Pulsonix,12.5.9360*
G04 #@! TF.CreationDate,2023-08-16T02:30:59+04:00*
G04 #@! TF.Part,Single*
%INCOMPARATOR INTERFACE V2*%
%LNTOP SILKSCREEN*%
%FSLAX35Y35*%
%LPD*%
%MOIN*%
G04 #@! TF.FileFunction,Legend,Top*
G04 #@! TF.FilePolarity,Positive*
G04 #@! TA.AperFunction,Material*
%ADD11C,0.00800*%
%ADD12C,0.00500*%
%ADD13C,0.00787*%
G04 #@! TD.AperFunction*
%ADD14C,0.00500*%
%ADD23C,0.00700*%
G04 #@! TA.AperFunction,Profile*
%ADD163C,0.00600*%
G04 #@! TD.AperFunction*
%ADD164C,0.01000*%
G04 #@! TD.AperFunction*
X0Y0D02*
D02*
D11*
X12404Y1182250D02*
X17704D01*
Y1169950D01*
X12404D01*
Y1182250D01*
X13904Y1283250D02*
Y1288550D01*
X26204D01*
Y1283250D01*
X13904D01*
Y1326850D02*
Y1332150D01*
X26204D01*
Y1326850D01*
X13904D01*
Y1333050D02*
Y1338350D01*
X26204D01*
Y1333050D01*
X13904D01*
X14104Y1274250D02*
Y1279550D01*
X26404D01*
Y1274250D01*
X14104D01*
X16204Y1436250D02*
X21504D01*
Y1423950D01*
X16204D01*
Y1436250D01*
X18204Y1182250D02*
X23504D01*
Y1169950D01*
X18204D01*
Y1182250D01*
X20504Y1409150D02*
X15204D01*
Y1421450D01*
X20504D01*
Y1409150D01*
X24304Y1191850D02*
X19004D01*
Y1204150D01*
X24304D01*
Y1191850D01*
X25204Y1204150D02*
X30504D01*
Y1191850D01*
X25204D01*
Y1204150D01*
X26204Y1344750D02*
Y1339450D01*
X13904D01*
Y1344750D01*
X26204D01*
Y1350950D02*
Y1345650D01*
X13904D01*
Y1350950D01*
X26204D01*
X26604Y1301750D02*
Y1296450D01*
X14304D01*
Y1301750D01*
X26604D01*
Y1308150D02*
Y1302850D01*
X14304D01*
Y1308150D01*
X26604D01*
X30004Y1408350D02*
Y1403050D01*
X17704D01*
Y1408350D01*
X30004D01*
X33204Y1413250D02*
X38504D01*
Y1400950D01*
X33204D01*
Y1413250D01*
X35204Y1438950D02*
Y1433650D01*
X22904D01*
Y1438950D01*
X35204D01*
X36704Y1271250D02*
Y1276550D01*
X49004D01*
Y1271250D01*
X36704D01*
Y1277650D02*
Y1282950D01*
X49004D01*
Y1277650D01*
X36704D01*
X39104Y1347250D02*
Y1352550D01*
X51404D01*
Y1347250D01*
X39104D01*
Y1353450D02*
Y1358750D01*
X51404D01*
Y1353450D01*
X39104D01*
X42004Y1413250D02*
X47304D01*
Y1400950D01*
X42004D01*
Y1413250D01*
X45504Y1433250D02*
Y1438550D01*
X57804D01*
Y1433250D01*
X45504D01*
X48304Y1404850D02*
Y1410150D01*
X60604D01*
Y1404850D01*
X48304D01*
X49004Y1289150D02*
Y1283850D01*
X36704D01*
Y1289150D01*
X49004D01*
Y1295550D02*
Y1290250D01*
X36704D01*
Y1295550D01*
X49004D01*
X51404Y1340150D02*
Y1334850D01*
X39104D01*
Y1340150D01*
X51404D01*
Y1346350D02*
Y1341050D01*
X39104D01*
Y1346350D01*
X51404D01*
X52204Y1174850D02*
X57504D01*
Y1162550D01*
X52204D01*
Y1174850D01*
X58304Y1161050D02*
Y1166350D01*
X70604D01*
Y1161050D01*
X58304D01*
X58504Y1171050D02*
Y1176350D01*
X70804D01*
Y1171050D01*
X58504D01*
X58604Y1436450D02*
X63904D01*
Y1424150D01*
X58604D01*
Y1436450D01*
X59504Y1227450D02*
Y1232750D01*
X71804D01*
Y1227450D01*
X59504D01*
X60904Y1410950D02*
X55604D01*
Y1423250D01*
X60904D01*
Y1410950D01*
X62504Y1187250D02*
X57204D01*
Y1199550D01*
X62504D01*
Y1187250D01*
X62704Y1202050D02*
X57404D01*
Y1214350D01*
X62704D01*
Y1202050D01*
X70704Y1180150D02*
X65404D01*
Y1192450D01*
X70704D01*
Y1180150D01*
X71604Y1226150D02*
Y1220850D01*
X59304D01*
Y1226150D01*
X71604D01*
X72004Y1174850D02*
X77304D01*
Y1162550D01*
X72004D01*
Y1174850D01*
X72204Y1217350D02*
X77504D01*
Y1205050D01*
X72204D01*
Y1217350D01*
X77104Y1180150D02*
X71804D01*
Y1192450D01*
X77104D01*
Y1180150D01*
X130904Y1165050D02*
X125604D01*
Y1177350D01*
X130904D01*
Y1165050D01*
Y1180050D02*
X125604D01*
Y1192350D01*
X130904D01*
Y1180050D01*
X137704Y1165050D02*
X132404D01*
Y1177350D01*
X137704D01*
Y1165050D01*
Y1180050D02*
X132404D01*
Y1192350D01*
X137704D01*
Y1180050D01*
X213904Y1302950D02*
X208604D01*
Y1315250D01*
X213904D01*
Y1302950D01*
X216104Y1293650D02*
Y1298950D01*
X228404D01*
Y1293650D01*
X216104D01*
X259304Y1188250D02*
Y1193550D01*
X271604D01*
Y1188250D01*
X259304D01*
X259504Y1194850D02*
Y1200150D01*
X271804D01*
Y1194850D01*
X259504D01*
D02*
D12*
X38854Y1185400D02*
X54854D01*
Y1192400D01*
X38854D01*
Y1185400D01*
X39254Y1194600D02*
X55254D01*
Y1201600D01*
X39254D01*
Y1194600D01*
X39454Y1176800D02*
X55454D01*
Y1183800D01*
X39454D01*
Y1176800D01*
Y1208800D02*
X55454D01*
Y1215800D01*
X39454D01*
Y1208800D01*
X54039Y1432075D02*
Y1413500D01*
X24117D01*
Y1432075D01*
X37602D01*
Y1430598D01*
X40554D01*
Y1432075D01*
X54039D01*
X215211Y1317663D02*
X228991D01*
Y1300114D01*
X218154D01*
X215211Y1303057D01*
Y1317663D01*
D02*
D13*
X48897Y1323383D02*
Y1308817D01*
X29212D01*
Y1323383D01*
X48897D01*
X48995Y1330569D02*
Y1324761D01*
X115329Y1158377D02*
X87180D01*
Y1219023D01*
X115329D01*
Y1158377D01*
X123400Y1163543D02*
X116707D01*
X233872Y1341357D02*
X239777D01*
X241155Y1340728D02*
X253754D01*
Y1306672D01*
X241155D01*
Y1340728D01*
D02*
D14*
X3854Y1274782D02*
X3854Y1278312D01*
X5913D01*
X6501Y1278018D01*
X6796Y1277429D01*
X6501Y1276841D01*
X5913Y1276547D01*
X3854D01*
X5913D02*
X6796Y1274782D01*
X10257D02*
X7904Y1274782D01*
X9963Y1276841D01*
X10257Y1277429D01*
X9963Y1278018D01*
X9375Y1278312D01*
X8493D01*
X7904Y1278018D01*
X11893Y1274782D02*
X13069Y1274782D01*
X12481D02*
X12481Y1278312D01*
X11893Y1277724D01*
X9522Y1172500D02*
X5993Y1172500D01*
Y1174559D01*
X6287Y1175147D01*
X6875Y1175441D01*
X7463Y1175147D01*
X7757Y1174559D01*
Y1172500D01*
Y1174559D02*
X9522Y1175441D01*
X9228Y1176844D02*
X9522Y1177432D01*
Y1178021D01*
X9228Y1178609D01*
X8640Y1178903D01*
X8051Y1178609D01*
X7757Y1178021D01*
Y1177432D01*
Y1178021D02*
X7463Y1178609D01*
X6875Y1178903D01*
X6287Y1178609D01*
X5993Y1178021D01*
Y1177432D01*
X6287Y1176844D01*
X9228Y1180244D02*
X9522Y1180832D01*
Y1181421D01*
X9228Y1182009D01*
X8640Y1182303D01*
X8051Y1182009D01*
X7757Y1181421D01*
Y1180832D01*
Y1181421D02*
X7463Y1182009D01*
X6875Y1182303D01*
X6287Y1182009D01*
X5993Y1181421D01*
Y1180832D01*
X6287Y1180244D01*
X12454Y1331218D02*
X12454Y1327688D01*
X10396D01*
X9807Y1327982D01*
X9513Y1328571D01*
X9807Y1329159D01*
X10396Y1329453D01*
X12454D01*
X10396D02*
X9513Y1331218D01*
X6051D02*
X8404Y1331218D01*
X6346Y1329159D01*
X6051Y1328571D01*
X6346Y1327982D01*
X6934Y1327688D01*
X7816D01*
X8404Y1327982D01*
X5004Y1330924D02*
X4416Y1331218D01*
X3534D01*
X2946Y1330924D01*
X2651Y1330335D01*
Y1330041D01*
X2946Y1329453D01*
X3534Y1329159D01*
X5004D01*
Y1327688D01*
X2651D01*
X9713Y1336629D02*
X10007Y1336924D01*
X10596Y1337218D01*
X11478D01*
X12066Y1336924D01*
X12360Y1336629D01*
X12654Y1336041D01*
Y1334865D01*
X12360Y1334276D01*
X12066Y1333982D01*
X11478Y1333688D01*
X10596D01*
X10007Y1333982D01*
X9713Y1334276D01*
X8310Y1336924D02*
X7722Y1337218D01*
X7134D01*
X6546Y1336924D01*
X6251Y1336335D01*
X6546Y1335747D01*
X7134Y1335453D01*
X7722D01*
X7134D02*
X6546Y1335159D01*
X6251Y1334571D01*
X6546Y1333982D01*
X7134Y1333688D01*
X7722D01*
X8310Y1333982D01*
X2851Y1337218D02*
X5204Y1337218D01*
X3146Y1335159D01*
X2851Y1334571D01*
X3146Y1333982D01*
X3734Y1333688D01*
X4616D01*
X5204Y1333982D01*
X12654Y1344018D02*
X12654Y1340488D01*
X10596D01*
X10007Y1340782D01*
X9713Y1341371D01*
X10007Y1341959D01*
X10596Y1342253D01*
X12654D01*
X10596D02*
X9713Y1344018D01*
X6251D02*
X8604Y1344018D01*
X6546Y1341959D01*
X6251Y1341371D01*
X6546Y1340782D01*
X7134Y1340488D01*
X8016D01*
X8604Y1340782D01*
X4322Y1342253D02*
X3734Y1342253D01*
X3146Y1341959D01*
X2851Y1341371D01*
X3146Y1340782D01*
X3734Y1340488D01*
X4322D01*
X4910Y1340782D01*
X5204Y1341371D01*
X4910Y1341959D01*
X4322Y1342253D01*
X4910Y1342547D01*
X5204Y1343135D01*
X4910Y1343724D01*
X4322Y1344018D01*
X3734D01*
X3146Y1343724D01*
X2851Y1343135D01*
X3146Y1342547D01*
X3734Y1342253D01*
X9713Y1349229D02*
X10007Y1349524D01*
X10596Y1349818D01*
X11478D01*
X12066Y1349524D01*
X12360Y1349229D01*
X12654Y1348641D01*
Y1347465D01*
X12360Y1346876D01*
X12066Y1346582D01*
X11478Y1346288D01*
X10596D01*
X10007Y1346582D01*
X9713Y1346876D01*
X8310Y1349524D02*
X7722Y1349818D01*
X7134D01*
X6546Y1349524D01*
X6251Y1348935D01*
X6546Y1348347D01*
X7134Y1348053D01*
X7722D01*
X7134D02*
X6546Y1347759D01*
X6251Y1347171D01*
X6546Y1346582D01*
X7134Y1346288D01*
X7722D01*
X8310Y1346582D01*
X4910Y1349524D02*
X4322Y1349818D01*
X3734D01*
X3146Y1349524D01*
X2851Y1348935D01*
X3146Y1348347D01*
X3734Y1348053D01*
X4322D01*
X3734D02*
X3146Y1347759D01*
X2851Y1347171D01*
X3146Y1346582D01*
X3734Y1346288D01*
X4322D01*
X4910Y1346582D01*
X10113Y1287029D02*
X10407Y1287324D01*
X10996Y1287618D01*
X11878D01*
X12466Y1287324D01*
X12760Y1287029D01*
X13054Y1286441D01*
Y1285265D01*
X12760Y1284676D01*
X12466Y1284382D01*
X11878Y1284088D01*
X10996D01*
X10407Y1284382D01*
X10113Y1284676D01*
X6651Y1287618D02*
X9004Y1287618D01*
X6946Y1285559D01*
X6651Y1284971D01*
X6946Y1284382D01*
X7534Y1284088D01*
X8416D01*
X9004Y1284382D01*
X4722Y1285853D02*
X4134Y1285853D01*
X3546Y1285559D01*
X3251Y1284971D01*
X3546Y1284382D01*
X4134Y1284088D01*
X4722D01*
X5310Y1284382D01*
X5604Y1284971D01*
X5310Y1285559D01*
X4722Y1285853D01*
X5310Y1286147D01*
X5604Y1286735D01*
X5310Y1287324D01*
X4722Y1287618D01*
X4134D01*
X3546Y1287324D01*
X3251Y1286735D01*
X3546Y1286147D01*
X4134Y1285853D01*
X13254Y1300818D02*
X13254Y1297288D01*
X11196D01*
X10607Y1297582D01*
X10313Y1298171D01*
X10607Y1298759D01*
X11196Y1299053D01*
X13254D01*
X11196D02*
X10313Y1300818D01*
X6851D02*
X9204Y1300818D01*
X7146Y1298759D01*
X6851Y1298171D01*
X7146Y1297582D01*
X7734Y1297288D01*
X8616D01*
X9204Y1297582D01*
X3451Y1300818D02*
X5804Y1300818D01*
X3746Y1298759D01*
X3451Y1298171D01*
X3746Y1297582D01*
X4334Y1297288D01*
X5216D01*
X5804Y1297582D01*
X10513Y1306429D02*
X10807Y1306724D01*
X11396Y1307018D01*
X12278D01*
X12866Y1306724D01*
X13160Y1306429D01*
X13454Y1305841D01*
Y1304665D01*
X13160Y1304076D01*
X12866Y1303782D01*
X12278Y1303488D01*
X11396D01*
X10807Y1303782D01*
X10513Y1304076D01*
X7051Y1307018D02*
X9404Y1307018D01*
X7346Y1304959D01*
X7051Y1304371D01*
X7346Y1303782D01*
X7934Y1303488D01*
X8816D01*
X9404Y1303782D01*
X5122Y1307018D02*
X4534Y1306724D01*
X3946Y1306135D01*
X3651Y1305253D01*
Y1304371D01*
X3946Y1303782D01*
X4534Y1303488D01*
X5122D01*
X5710Y1303782D01*
X6004Y1304371D01*
X5710Y1304959D01*
X5122Y1305253D01*
X4534D01*
X3946Y1304959D01*
X3651Y1304371D01*
X13572Y1412700D02*
X10043Y1412700D01*
Y1414759D01*
X10337Y1415347D01*
X10925Y1415641D01*
X11513Y1415347D01*
X11807Y1414759D01*
Y1412700D01*
Y1414759D02*
X13572Y1415641D01*
Y1417338D02*
X13572Y1418515D01*
Y1417926D02*
X10043Y1417926D01*
X10631Y1417338D01*
X14584Y1432041D02*
X14878Y1431747D01*
X15172Y1431159D01*
Y1430276D01*
X14878Y1429688D01*
X14584Y1429394D01*
X13996Y1429100D01*
X12819D01*
X12231Y1429394D01*
X11937Y1429688D01*
X11643Y1430276D01*
Y1431159D01*
X11937Y1431747D01*
X12231Y1432041D01*
X15172Y1434032D02*
X14878Y1434621D01*
X14290Y1435209D01*
X13407Y1435503D01*
X12525D01*
X11937Y1435209D01*
X11643Y1434621D01*
Y1434032D01*
X11937Y1433444D01*
X12525Y1433150D01*
X13113Y1433444D01*
X13407Y1434032D01*
Y1434621D01*
X13113Y1435209D01*
X12525Y1435503D01*
X24054Y1440582D02*
X24054Y1444112D01*
X26113D01*
X26701Y1443818D01*
X26996Y1443229D01*
X26701Y1442641D01*
X26113Y1442347D01*
X24054D01*
X26113D02*
X26996Y1440582D01*
X28693D02*
X29869Y1440582D01*
X29281D02*
X29281Y1444112D01*
X28693Y1443524D01*
X31798Y1440876D02*
X32387Y1440582D01*
X32975D01*
X33563Y1440876D01*
X33857Y1441465D01*
X33563Y1442053D01*
X32975Y1442347D01*
X32387D01*
X32975D02*
X33563Y1442641D01*
X33857Y1443229D01*
X33563Y1443818D01*
X32975Y1444112D01*
X32387D01*
X31798Y1443818D01*
X23372Y1184200D02*
X19843Y1184200D01*
Y1186259D01*
X20137Y1186847D01*
X20725Y1187141D01*
X21313Y1186847D01*
X21607Y1186259D01*
Y1184200D01*
Y1186259D02*
X23372Y1187141D01*
Y1189132D02*
X23078Y1189721D01*
X22490Y1190309D01*
X21607Y1190603D01*
X20725D01*
X20137Y1190309D01*
X19843Y1189721D01*
Y1189132D01*
X20137Y1188544D01*
X20725Y1188250D01*
X21313Y1188544D01*
X21607Y1189132D01*
Y1189721D01*
X21313Y1190309D01*
X20725Y1190603D01*
X25854Y1401418D02*
X25854Y1397888D01*
X23796D01*
X23207Y1398182D01*
X22913Y1398771D01*
X23207Y1399359D01*
X23796Y1399653D01*
X25854D01*
X23796D02*
X22913Y1401418D01*
X19451D02*
X21804Y1401418D01*
X19746Y1399359D01*
X19451Y1398771D01*
X19746Y1398182D01*
X20334Y1397888D01*
X21216D01*
X21804Y1398182D01*
X30996Y1336171D02*
X30701Y1335876D01*
X30113Y1335582D01*
X29231D01*
X28643Y1335876D01*
X28348Y1336171D01*
X28054Y1336759D01*
Y1337935D01*
X28348Y1338524D01*
X28643Y1338818D01*
X29231Y1339112D01*
X30113D01*
X30701Y1338818D01*
X30996Y1338524D01*
X32398Y1335876D02*
X32987Y1335582D01*
X33575D01*
X34163Y1335876D01*
X34457Y1336465D01*
X34163Y1337053D01*
X33575Y1337347D01*
X32987D01*
X33575D02*
X34163Y1337641D01*
X34457Y1338229D01*
X34163Y1338818D01*
X33575Y1339112D01*
X32987D01*
X32398Y1338818D01*
X35504Y1335876D02*
X36093Y1335582D01*
X36975D01*
X37563Y1335876D01*
X37857Y1336465D01*
Y1336759D01*
X37563Y1337347D01*
X36975Y1337641D01*
X35504D01*
Y1339112D01*
X37857D01*
X28254Y1341782D02*
X28254Y1345312D01*
X30313D01*
X30901Y1345018D01*
X31196Y1344429D01*
X30901Y1343841D01*
X30313Y1343547D01*
X28254D01*
X30313D02*
X31196Y1341782D01*
X32598Y1342076D02*
X33187Y1341782D01*
X33775D01*
X34363Y1342076D01*
X34657Y1342665D01*
X34363Y1343253D01*
X33775Y1343547D01*
X33187D01*
X33775D02*
X34363Y1343841D01*
X34657Y1344429D01*
X34363Y1345018D01*
X33775Y1345312D01*
X33187D01*
X32598Y1345018D01*
X35998Y1342076D02*
X36587Y1341782D01*
X37175D01*
X37763Y1342076D01*
X38057Y1342665D01*
Y1344429D01*
X37763Y1345018D01*
X37175Y1345312D01*
X36587D01*
X35998Y1345018D01*
X35704Y1344429D01*
Y1342665D01*
X35998Y1342076D01*
X37763Y1345018D01*
X31396Y1348571D02*
X31101Y1348276D01*
X30513Y1347982D01*
X29631D01*
X29043Y1348276D01*
X28748Y1348571D01*
X28454Y1349159D01*
Y1350335D01*
X28748Y1350924D01*
X29043Y1351218D01*
X29631Y1351512D01*
X30513D01*
X31101Y1351218D01*
X31396Y1350924D01*
X32798Y1348276D02*
X33387Y1347982D01*
X33975D01*
X34563Y1348276D01*
X34857Y1348865D01*
X34563Y1349453D01*
X33975Y1349747D01*
X33387D01*
X33975D02*
X34563Y1350041D01*
X34857Y1350629D01*
X34563Y1351218D01*
X33975Y1351512D01*
X33387D01*
X32798Y1351218D01*
X37375Y1347982D02*
X37375Y1351512D01*
X35904Y1349159D01*
X38257D01*
X28454Y1354382D02*
X28454Y1357912D01*
X30513D01*
X31101Y1357618D01*
X31396Y1357029D01*
X31101Y1356441D01*
X30513Y1356147D01*
X28454D01*
X30513D02*
X31396Y1354382D01*
X34857D02*
X32504Y1354382D01*
X34563Y1356441D01*
X34857Y1357029D01*
X34563Y1357618D01*
X33975Y1357912D01*
X33093D01*
X32504Y1357618D01*
X36787Y1354382D02*
X37375Y1354676D01*
X37963Y1355265D01*
X38257Y1356147D01*
Y1357029D01*
X37963Y1357618D01*
X37375Y1357912D01*
X36787D01*
X36198Y1357618D01*
X35904Y1357029D01*
X36198Y1356441D01*
X36787Y1356147D01*
X37375D01*
X37963Y1356441D01*
X38257Y1357029D01*
X29172Y1171300D02*
X25643Y1171300D01*
Y1173359D01*
X25937Y1173947D01*
X26525Y1174241D01*
X27113Y1173947D01*
X27407Y1173359D01*
Y1171300D01*
Y1173359D02*
X29172Y1174241D01*
X28878Y1175644D02*
X29172Y1176232D01*
Y1176821D01*
X28878Y1177409D01*
X28290Y1177703D01*
X27701Y1177409D01*
X27407Y1176821D01*
Y1176232D01*
Y1176821D02*
X27113Y1177409D01*
X26525Y1177703D01*
X25937Y1177409D01*
X25643Y1176821D01*
Y1176232D01*
X25937Y1175644D01*
X29172Y1180221D02*
X25643Y1180221D01*
X27996Y1178750D01*
Y1181103D01*
X29384Y1186941D02*
X29678Y1186647D01*
X29972Y1186059D01*
Y1185176D01*
X29678Y1184588D01*
X29384Y1184294D01*
X28796Y1184000D01*
X27619D01*
X27031Y1184294D01*
X26737Y1184588D01*
X26443Y1185176D01*
Y1186059D01*
X26737Y1186647D01*
X27031Y1186941D01*
X28207Y1188932D02*
X28207Y1189521D01*
X27913Y1190109D01*
X27325Y1190403D01*
X26737Y1190109D01*
X26443Y1189521D01*
Y1188932D01*
X26737Y1188344D01*
X27325Y1188050D01*
X27913Y1188344D01*
X28207Y1188932D01*
X28501Y1188344D01*
X29090Y1188050D01*
X29678Y1188344D01*
X29972Y1188932D01*
Y1189521D01*
X29678Y1190109D01*
X29090Y1190403D01*
X28501Y1190109D01*
X28207Y1189521D01*
X33054Y1396182D02*
X33054Y1399712D01*
X35113D01*
X35701Y1399418D01*
X35996Y1398829D01*
X35701Y1398241D01*
X35113Y1397947D01*
X33054D01*
X35113D02*
X35996Y1396182D01*
X37398Y1396476D02*
X37987Y1396182D01*
X38575D01*
X39163Y1396476D01*
X39457Y1397065D01*
X39163Y1397653D01*
X38575Y1397947D01*
X37987D01*
X38575D02*
X39163Y1398241D01*
X39457Y1398829D01*
X39163Y1399418D01*
X38575Y1399712D01*
X37987D01*
X37398Y1399418D01*
X42454Y1396182D02*
X42454Y1399712D01*
X44513D01*
X45101Y1399418D01*
X45396Y1398829D01*
X45101Y1398241D01*
X44513Y1397947D01*
X42454D01*
X44513D02*
X45396Y1396182D01*
X46504Y1397065D02*
X46798Y1397653D01*
X47387Y1397947D01*
X47975D01*
X48563Y1397653D01*
X48857Y1397065D01*
X48563Y1396476D01*
X47975Y1396182D01*
X47387D01*
X46798Y1396476D01*
X46504Y1397065D01*
Y1397947D01*
X46798Y1398829D01*
X47387Y1399418D01*
X47975Y1399712D01*
X47054Y1175982D02*
X47054Y1179512D01*
X49113D01*
X49701Y1179218D01*
X49996Y1178629D01*
X49701Y1178041D01*
X49113Y1177747D01*
X47054D01*
X49113D02*
X49996Y1175982D01*
X51693D02*
X52869Y1175982D01*
X52281D02*
X52281Y1179512D01*
X51693Y1178924D01*
X55387Y1175982D02*
X55975Y1176276D01*
X56563Y1176865D01*
X56857Y1177747D01*
Y1178629D01*
X56563Y1179218D01*
X55975Y1179512D01*
X55387D01*
X54798Y1179218D01*
X54504Y1178629D01*
X54798Y1178041D01*
X55387Y1177747D01*
X55975D01*
X56563Y1178041D01*
X56857Y1178629D01*
X47254Y1439582D02*
X47254Y1443112D01*
X49313D01*
X49901Y1442818D01*
X50196Y1442229D01*
X49901Y1441641D01*
X49313Y1441347D01*
X47254D01*
X49313D02*
X50196Y1439582D01*
X51893D02*
X53069Y1439582D01*
X52481D02*
X52481Y1443112D01*
X51893Y1442524D01*
X56175Y1439582D02*
X56175Y1443112D01*
X54704Y1440759D01*
X57057D01*
X49654Y1228282D02*
X49654Y1231812D01*
X51713D01*
X52301Y1231518D01*
X52596Y1230929D01*
X52301Y1230341D01*
X51713Y1230047D01*
X49654D01*
X51713D02*
X52596Y1228282D01*
X53998Y1228576D02*
X54587Y1228282D01*
X55175D01*
X55763Y1228576D01*
X56057Y1229165D01*
X55763Y1229753D01*
X55175Y1230047D01*
X54587D01*
X55175D02*
X55763Y1230341D01*
X56057Y1230929D01*
X55763Y1231518D01*
X55175Y1231812D01*
X54587D01*
X53998Y1231518D01*
X57104Y1228576D02*
X57693Y1228282D01*
X58575D01*
X59163Y1228576D01*
X59457Y1229165D01*
Y1229459D01*
X59163Y1230047D01*
X58575Y1230341D01*
X57104D01*
Y1231812D01*
X59457D01*
X51337Y1321900D02*
X51337Y1320724D01*
Y1321312D02*
X54866Y1321312D01*
Y1321900D02*
X54866Y1320724D01*
X51925Y1316809D02*
X51631Y1317103D01*
X51337Y1317691D01*
Y1318574D01*
X51631Y1319162D01*
X51925Y1319456D01*
X52513Y1319750D01*
X53690D01*
X54278Y1319456D01*
X54572Y1319162D01*
X54866Y1318574D01*
Y1317691D01*
X54572Y1317103D01*
X54278Y1316809D01*
X51631Y1315700D02*
X51337Y1315112D01*
Y1314229D01*
X51631Y1313641D01*
X52219Y1313347D01*
X52513D01*
X53101Y1313641D01*
X53396Y1314229D01*
Y1315700D01*
X54866D01*
Y1313347D01*
X51454Y1399782D02*
X51454Y1403312D01*
X53513D01*
X54101Y1403018D01*
X54396Y1402429D01*
X54101Y1401841D01*
X53513Y1401547D01*
X51454D01*
X53513D02*
X54396Y1399782D01*
X55504Y1400076D02*
X56093Y1399782D01*
X56975D01*
X57563Y1400076D01*
X57857Y1400665D01*
Y1400959D01*
X57563Y1401547D01*
X56975Y1401841D01*
X55504D01*
Y1403312D01*
X57857D01*
X55572Y1193600D02*
X52043Y1193600D01*
Y1195659D01*
X52337Y1196247D01*
X52925Y1196541D01*
X53513Y1196247D01*
X53807Y1195659D01*
Y1193600D01*
Y1195659D02*
X55572Y1196541D01*
X53807Y1198532D02*
X53807Y1199121D01*
X53513Y1199709D01*
X52925Y1200003D01*
X52337Y1199709D01*
X52043Y1199121D01*
Y1198532D01*
X52337Y1197944D01*
X52925Y1197650D01*
X53513Y1197944D01*
X53807Y1198532D01*
X54101Y1197944D01*
X54690Y1197650D01*
X55278Y1197944D01*
X55572Y1198532D01*
Y1199121D01*
X55278Y1199709D01*
X54690Y1200003D01*
X54101Y1199709D01*
X53807Y1199121D01*
X56172Y1202200D02*
X52643Y1202200D01*
Y1204259D01*
X52937Y1204847D01*
X53525Y1205141D01*
X54113Y1204847D01*
X54407Y1204259D01*
Y1202200D01*
Y1204259D02*
X56172Y1205141D01*
Y1206250D02*
X52643Y1208603D01*
Y1206250D01*
X55884Y1154141D02*
X56178Y1153847D01*
X56472Y1153259D01*
Y1152376D01*
X56178Y1151788D01*
X55884Y1151494D01*
X55296Y1151200D01*
X54119D01*
X53531Y1151494D01*
X53237Y1151788D01*
X52943Y1152376D01*
Y1153259D01*
X53237Y1153847D01*
X53531Y1154141D01*
X56472Y1157603D02*
X56472Y1155250D01*
X54413Y1157309D01*
X53825Y1157603D01*
X53237Y1157309D01*
X52943Y1156721D01*
Y1155838D01*
X53237Y1155250D01*
X56178Y1158944D02*
X56472Y1159532D01*
Y1160121D01*
X56178Y1160709D01*
X55590Y1161003D01*
X55001Y1160709D01*
X54707Y1160121D01*
Y1159532D01*
Y1160121D02*
X54413Y1160709D01*
X53825Y1161003D01*
X53237Y1160709D01*
X52943Y1160121D01*
Y1159532D01*
X53237Y1158944D01*
X56313Y1294029D02*
X56607Y1294324D01*
X57196Y1294618D01*
X58078D01*
X58666Y1294324D01*
X58960Y1294029D01*
X59254Y1293441D01*
Y1292265D01*
X58960Y1291676D01*
X58666Y1291382D01*
X58078Y1291088D01*
X57196D01*
X56607Y1291382D01*
X56313Y1291676D01*
X54910Y1294324D02*
X54322Y1294618D01*
X53734D01*
X53146Y1294324D01*
X52851Y1293735D01*
X53146Y1293147D01*
X53734Y1292853D01*
X54322D01*
X53734D02*
X53146Y1292559D01*
X52851Y1291971D01*
X53146Y1291382D01*
X53734Y1291088D01*
X54322D01*
X54910Y1291382D01*
X51216Y1294618D02*
X50040Y1294618D01*
X50628D02*
X50628Y1291088D01*
X51216Y1291676D01*
X59454Y1288418D02*
X59454Y1284888D01*
X57396D01*
X56807Y1285182D01*
X56513Y1285771D01*
X56807Y1286359D01*
X57396Y1286653D01*
X59454D01*
X57396D02*
X56513Y1288418D01*
X53051D02*
X55404Y1288418D01*
X53346Y1286359D01*
X53051Y1285771D01*
X53346Y1285182D01*
X53934Y1284888D01*
X54816D01*
X55404Y1285182D01*
X50534Y1288418D02*
X50534Y1284888D01*
X52004Y1287241D01*
X49651D01*
X59854Y1156282D02*
X59854Y1159812D01*
X61913D01*
X62501Y1159518D01*
X62796Y1158929D01*
X62501Y1158341D01*
X61913Y1158047D01*
X59854D01*
X61913D02*
X62796Y1156282D01*
X64493D02*
X65669Y1156282D01*
X65081D02*
X65081Y1159812D01*
X64493Y1159224D01*
X68187Y1158047D02*
X68775Y1158047D01*
X69363Y1158341D01*
X69657Y1158929D01*
X69363Y1159518D01*
X68775Y1159812D01*
X68187D01*
X67598Y1159518D01*
X67304Y1158929D01*
X67598Y1158341D01*
X68187Y1158047D01*
X67598Y1157753D01*
X67304Y1157165D01*
X67598Y1156576D01*
X68187Y1156282D01*
X68775D01*
X69363Y1156576D01*
X69657Y1157165D01*
X69363Y1157753D01*
X68775Y1158047D01*
X59854Y1275018D02*
X59854Y1271488D01*
X57796D01*
X57207Y1271782D01*
X56913Y1272371D01*
X57207Y1272959D01*
X57796Y1273253D01*
X59854D01*
X57796D02*
X56913Y1275018D01*
X53451D02*
X55804Y1275018D01*
X53746Y1272959D01*
X53451Y1272371D01*
X53746Y1271782D01*
X54334Y1271488D01*
X55216D01*
X55804Y1271782D01*
X52110Y1274724D02*
X51522Y1275018D01*
X50934D01*
X50346Y1274724D01*
X50051Y1274135D01*
X50346Y1273547D01*
X50934Y1273253D01*
X51522D01*
X50934D02*
X50346Y1272959D01*
X50051Y1272371D01*
X50346Y1271782D01*
X50934Y1271488D01*
X51522D01*
X52110Y1271782D01*
X56913Y1281429D02*
X57207Y1281724D01*
X57796Y1282018D01*
X58678D01*
X59266Y1281724D01*
X59560Y1281429D01*
X59854Y1280841D01*
Y1279665D01*
X59560Y1279076D01*
X59266Y1278782D01*
X58678Y1278488D01*
X57796D01*
X57207Y1278782D01*
X56913Y1279076D01*
X55510Y1281724D02*
X54922Y1282018D01*
X54334D01*
X53746Y1281724D01*
X53451Y1281135D01*
X53746Y1280547D01*
X54334Y1280253D01*
X54922D01*
X54334D02*
X53746Y1279959D01*
X53451Y1279371D01*
X53746Y1278782D01*
X54334Y1278488D01*
X54922D01*
X55510Y1278782D01*
X52110Y1281724D02*
X51522Y1282018D01*
X50934D01*
X50346Y1281724D01*
X50051Y1281135D01*
Y1279371D01*
X50346Y1278782D01*
X50934Y1278488D01*
X51522D01*
X52110Y1278782D01*
X52404Y1279371D01*
Y1281135D01*
X52110Y1281724D01*
X50346Y1278782D01*
X60472Y1183900D02*
X56943Y1183900D01*
Y1186841D01*
X58707Y1186253D02*
X58707Y1183900D01*
X60178Y1187950D02*
X60472Y1188538D01*
Y1189421D01*
X60178Y1190009D01*
X59590Y1190303D01*
X59296D01*
X58707Y1190009D01*
X58413Y1189421D01*
Y1187950D01*
X56943D01*
Y1190303D01*
X60872Y1193100D02*
X57343Y1193100D01*
Y1196041D01*
X59107Y1195453D02*
X59107Y1193100D01*
X60872Y1197150D02*
X57343Y1199503D01*
Y1197150D01*
X61072Y1175300D02*
X57543Y1175300D01*
Y1178241D01*
X59307Y1177653D02*
X59307Y1175300D01*
X61072Y1180821D02*
X57543Y1180821D01*
X59896Y1179350D01*
Y1181703D01*
X61072Y1207300D02*
X57543Y1207300D01*
Y1210241D01*
X59307Y1209653D02*
X59307Y1207300D01*
X60190Y1211350D02*
X59601Y1211644D01*
X59307Y1212232D01*
Y1212821D01*
X59601Y1213409D01*
X60190Y1213703D01*
X60778Y1213409D01*
X61072Y1212821D01*
Y1212232D01*
X60778Y1211644D01*
X60190Y1211350D01*
X59307D01*
X58425Y1211644D01*
X57837Y1212232D01*
X57543Y1212821D01*
X65172Y1411900D02*
X61643Y1411900D01*
Y1413959D01*
X61937Y1414547D01*
X62525Y1414841D01*
X63113Y1414547D01*
X63407Y1413959D01*
Y1411900D01*
Y1413959D02*
X65172Y1414841D01*
Y1417421D02*
X61643Y1417421D01*
X63996Y1415950D01*
Y1418303D01*
X68784Y1428041D02*
X69078Y1427747D01*
X69372Y1427159D01*
Y1426276D01*
X69078Y1425688D01*
X68784Y1425394D01*
X68196Y1425100D01*
X67019D01*
X66431Y1425394D01*
X66137Y1425688D01*
X65843Y1426276D01*
Y1427159D01*
X66137Y1427747D01*
X66431Y1428041D01*
X69372Y1429738D02*
X69372Y1430915D01*
Y1430326D02*
X65843Y1430326D01*
X66431Y1429738D01*
X69078Y1432844D02*
X69372Y1433432D01*
Y1434021D01*
X69078Y1434609D01*
X68490Y1434903D01*
X66725D01*
X66137Y1434609D01*
X65843Y1434021D01*
Y1433432D01*
X66137Y1432844D01*
X66725Y1432550D01*
X68490D01*
X69078Y1432844D01*
X66137Y1434609D01*
X69184Y1196341D02*
X69478Y1196047D01*
X69772Y1195459D01*
Y1194576D01*
X69478Y1193988D01*
X69184Y1193694D01*
X68596Y1193400D01*
X67419D01*
X66831Y1193694D01*
X66537Y1193988D01*
X66243Y1194576D01*
Y1195459D01*
X66537Y1196047D01*
X66831Y1196341D01*
X69772Y1199803D02*
X69772Y1197450D01*
X67713Y1199509D01*
X67125Y1199803D01*
X66537Y1199509D01*
X66243Y1198921D01*
Y1198038D01*
X66537Y1197450D01*
X69772Y1201438D02*
X69772Y1202615D01*
Y1202026D02*
X66243Y1202026D01*
X66831Y1201438D01*
X75584Y1196341D02*
X75878Y1196047D01*
X76172Y1195459D01*
Y1194576D01*
X75878Y1193988D01*
X75584Y1193694D01*
X74996Y1193400D01*
X73819D01*
X73231Y1193694D01*
X72937Y1193988D01*
X72643Y1194576D01*
Y1195459D01*
X72937Y1196047D01*
X73231Y1196341D01*
X76172Y1199803D02*
X76172Y1197450D01*
X74113Y1199509D01*
X73525Y1199803D01*
X72937Y1199509D01*
X72643Y1198921D01*
Y1198038D01*
X72937Y1197450D01*
X75878Y1201144D02*
X76172Y1201732D01*
Y1202321D01*
X75878Y1202909D01*
X75290Y1203203D01*
X73525D01*
X72937Y1202909D01*
X72643Y1202321D01*
Y1201732D01*
X72937Y1201144D01*
X73525Y1200850D01*
X75290D01*
X75878Y1201144D01*
X72937Y1202909D01*
X76172Y1218600D02*
X72643Y1218600D01*
Y1220659D01*
X72937Y1221247D01*
X73525Y1221541D01*
X74113Y1221247D01*
X74407Y1220659D01*
Y1218600D01*
Y1220659D02*
X76172Y1221541D01*
Y1223238D02*
X76172Y1224415D01*
Y1223826D02*
X72643Y1223826D01*
X73231Y1223238D01*
X75290Y1226050D02*
X74701Y1226344D01*
X74407Y1226932D01*
Y1227521D01*
X74701Y1228109D01*
X75290Y1228403D01*
X75878Y1228109D01*
X76172Y1227521D01*
Y1226932D01*
X75878Y1226344D01*
X75290Y1226050D01*
X74407D01*
X73525Y1226344D01*
X72937Y1226932D01*
X72643Y1227521D01*
X75684Y1154141D02*
X75978Y1153847D01*
X76272Y1153259D01*
Y1152376D01*
X75978Y1151788D01*
X75684Y1151494D01*
X75096Y1151200D01*
X73919D01*
X73331Y1151494D01*
X73037Y1151788D01*
X72743Y1152376D01*
Y1153259D01*
X73037Y1153847D01*
X73331Y1154141D01*
X76272Y1157603D02*
X76272Y1155250D01*
X74213Y1157309D01*
X73625Y1157603D01*
X73037Y1157309D01*
X72743Y1156721D01*
Y1155838D01*
X73037Y1155250D01*
X76272Y1161003D02*
X76272Y1158650D01*
X74213Y1160709D01*
X73625Y1161003D01*
X73037Y1160709D01*
X72743Y1160121D01*
Y1159238D01*
X73037Y1158650D01*
X80013Y1225679D02*
X80307Y1225974D01*
X80896Y1226268D01*
X81778D01*
X82366Y1225974D01*
X82660Y1225679D01*
X82954Y1225091D01*
Y1223915D01*
X82660Y1223326D01*
X82366Y1223032D01*
X81778Y1222738D01*
X80896D01*
X80307Y1223032D01*
X80013Y1223326D01*
X76551Y1226268D02*
X78904Y1226268D01*
X76846Y1224209D01*
X76551Y1223621D01*
X76846Y1223032D01*
X77434Y1222738D01*
X78316D01*
X78904Y1223032D01*
X74034Y1226268D02*
X74034Y1222738D01*
X75504Y1225091D01*
X73151D01*
X110054Y1152482D02*
X111231Y1152482D01*
X110643D02*
X110643Y1156012D01*
X110054D02*
X111231Y1156012D01*
X115146Y1153071D02*
X114851Y1152776D01*
X114263Y1152482D01*
X113381D01*
X112793Y1152776D01*
X112498Y1153071D01*
X112204Y1153659D01*
Y1154835D01*
X112498Y1155424D01*
X112793Y1155718D01*
X113381Y1156012D01*
X114263D01*
X114851Y1155718D01*
X115146Y1155424D01*
X116843Y1152482D02*
X118019Y1152482D01*
X117431D02*
X117431Y1156012D01*
X116843Y1155424D01*
X129584Y1196141D02*
X129878Y1195847D01*
X130172Y1195259D01*
Y1194376D01*
X129878Y1193788D01*
X129584Y1193494D01*
X128996Y1193200D01*
X127819D01*
X127231Y1193494D01*
X126937Y1193788D01*
X126643Y1194376D01*
Y1195259D01*
X126937Y1195847D01*
X127231Y1196141D01*
X130172Y1197838D02*
X130172Y1199015D01*
Y1198426D02*
X126643Y1198426D01*
X127231Y1197838D01*
X130172Y1201532D02*
X129878Y1202121D01*
X129290Y1202709D01*
X128407Y1203003D01*
X127525D01*
X126937Y1202709D01*
X126643Y1202121D01*
Y1201532D01*
X126937Y1200944D01*
X127525Y1200650D01*
X128113Y1200944D01*
X128407Y1201532D01*
Y1202121D01*
X128113Y1202709D01*
X127525Y1203003D01*
X129984Y1157141D02*
X130278Y1156847D01*
X130572Y1156259D01*
Y1155376D01*
X130278Y1154788D01*
X129984Y1154494D01*
X129396Y1154200D01*
X128219D01*
X127631Y1154494D01*
X127337Y1154788D01*
X127043Y1155376D01*
Y1156259D01*
X127337Y1156847D01*
X127631Y1157141D01*
X130572Y1158838D02*
X130572Y1160015D01*
Y1159426D02*
X127043Y1159426D01*
X127631Y1158838D01*
X130572Y1161650D02*
X127043Y1164003D01*
Y1161650D01*
X135784Y1196141D02*
X136078Y1195847D01*
X136372Y1195259D01*
Y1194376D01*
X136078Y1193788D01*
X135784Y1193494D01*
X135196Y1193200D01*
X134019D01*
X133431Y1193494D01*
X133137Y1193788D01*
X132843Y1194376D01*
Y1195259D01*
X133137Y1195847D01*
X133431Y1196141D01*
X136372Y1197838D02*
X136372Y1199015D01*
Y1198426D02*
X132843Y1198426D01*
X133431Y1197838D01*
X134607Y1201532D02*
X134607Y1202121D01*
X134313Y1202709D01*
X133725Y1203003D01*
X133137Y1202709D01*
X132843Y1202121D01*
Y1201532D01*
X133137Y1200944D01*
X133725Y1200650D01*
X134313Y1200944D01*
X134607Y1201532D01*
X134901Y1200944D01*
X135490Y1200650D01*
X136078Y1200944D01*
X136372Y1201532D01*
Y1202121D01*
X136078Y1202709D01*
X135490Y1203003D01*
X134901Y1202709D01*
X134607Y1202121D01*
X136184Y1157141D02*
X136478Y1156847D01*
X136772Y1156259D01*
Y1155376D01*
X136478Y1154788D01*
X136184Y1154494D01*
X135596Y1154200D01*
X134419D01*
X133831Y1154494D01*
X133537Y1154788D01*
X133243Y1155376D01*
Y1156259D01*
X133537Y1156847D01*
X133831Y1157141D01*
X136772Y1158838D02*
X136772Y1160015D01*
Y1159426D02*
X133243Y1159426D01*
X133831Y1158838D01*
X135890Y1161650D02*
X135301Y1161944D01*
X135007Y1162532D01*
Y1163121D01*
X135301Y1163709D01*
X135890Y1164003D01*
X136478Y1163709D01*
X136772Y1163121D01*
Y1162532D01*
X136478Y1161944D01*
X135890Y1161650D01*
X135007D01*
X134125Y1161944D01*
X133537Y1162532D01*
X133243Y1163121D01*
X206984Y1307441D02*
X207278Y1307147D01*
X207572Y1306559D01*
Y1305676D01*
X207278Y1305088D01*
X206984Y1304794D01*
X206396Y1304500D01*
X205219D01*
X204631Y1304794D01*
X204337Y1305088D01*
X204043Y1305676D01*
Y1306559D01*
X204337Y1307147D01*
X204631Y1307441D01*
X207572Y1310903D02*
X207572Y1308550D01*
X205513Y1310609D01*
X204925Y1310903D01*
X204337Y1310609D01*
X204043Y1310021D01*
Y1309138D01*
X204337Y1308550D01*
X207572Y1311950D02*
X204043Y1314303D01*
Y1311950D01*
X219996Y1289771D02*
X219701Y1289476D01*
X219113Y1289182D01*
X218231D01*
X217643Y1289476D01*
X217348Y1289771D01*
X217054Y1290359D01*
Y1291535D01*
X217348Y1292124D01*
X217643Y1292418D01*
X218231Y1292712D01*
X219113D01*
X219701Y1292418D01*
X219996Y1292124D01*
X223457Y1289182D02*
X221104Y1289182D01*
X223163Y1291241D01*
X223457Y1291829D01*
X223163Y1292418D01*
X222575Y1292712D01*
X221693D01*
X221104Y1292418D01*
X224504Y1290065D02*
X224798Y1290653D01*
X225387Y1290947D01*
X225975D01*
X226563Y1290653D01*
X226857Y1290065D01*
X226563Y1289476D01*
X225975Y1289182D01*
X225387D01*
X224798Y1289476D01*
X224504Y1290065D01*
Y1290947D01*
X224798Y1291829D01*
X225387Y1292418D01*
X225975Y1292712D01*
X219254Y1324512D02*
X219254Y1321865D01*
X219548Y1321276D01*
X220137Y1320982D01*
X221313D01*
X221901Y1321276D01*
X222196Y1321865D01*
Y1324512D01*
X223598Y1321276D02*
X224187Y1320982D01*
X224775D01*
X225363Y1321276D01*
X225657Y1321865D01*
X225363Y1322453D01*
X224775Y1322747D01*
X224187D01*
X224775D02*
X225363Y1323041D01*
X225657Y1323629D01*
X225363Y1324218D01*
X224775Y1324512D01*
X224187D01*
X223598Y1324218D01*
X243054Y1342582D02*
X244231Y1342582D01*
X243643D02*
X243643Y1346112D01*
X243054D02*
X244231Y1346112D01*
X248146Y1343171D02*
X247851Y1342876D01*
X247263Y1342582D01*
X246381D01*
X245793Y1342876D01*
X245498Y1343171D01*
X245204Y1343759D01*
Y1344935D01*
X245498Y1345524D01*
X245793Y1345818D01*
X246381Y1346112D01*
X247263D01*
X247851Y1345818D01*
X248146Y1345524D01*
X250725Y1342582D02*
X250725Y1346112D01*
X249254Y1343759D01*
X251607D01*
X260654Y1183582D02*
X260654Y1187112D01*
X262713D01*
X263301Y1186818D01*
X263596Y1186229D01*
X263301Y1185641D01*
X262713Y1185347D01*
X260654D01*
X262713D02*
X263596Y1183582D01*
X267057D02*
X264704Y1183582D01*
X266763Y1185641D01*
X267057Y1186229D01*
X266763Y1186818D01*
X266175Y1187112D01*
X265293D01*
X264704Y1186818D01*
X268104Y1184465D02*
X268398Y1185053D01*
X268987Y1185347D01*
X269575D01*
X270163Y1185053D01*
X270457Y1184465D01*
X270163Y1183876D01*
X269575Y1183582D01*
X268987D01*
X268398Y1183876D01*
X268104Y1184465D01*
Y1185347D01*
X268398Y1186229D01*
X268987Y1186818D01*
X269575Y1187112D01*
X261254Y1201382D02*
X261254Y1204912D01*
X263313D01*
X263901Y1204618D01*
X264196Y1204029D01*
X263901Y1203441D01*
X263313Y1203147D01*
X261254D01*
X263313D02*
X264196Y1201382D01*
X267657D02*
X265304Y1201382D01*
X267363Y1203441D01*
X267657Y1204029D01*
X267363Y1204618D01*
X266775Y1204912D01*
X265893D01*
X265304Y1204618D01*
X268704Y1201382D02*
X271057Y1204912D01*
X268704D01*
D02*
D23*
X31654Y1437471D02*
X31654Y1434824D01*
X31948Y1434236D01*
X32537Y1433941D01*
X33713D01*
X34301Y1434236D01*
X34596Y1434824D01*
Y1437471D01*
X36293Y1433941D02*
X37469Y1433941D01*
X36881D02*
X36881Y1437471D01*
X36293Y1436883D01*
D02*
D163*
X26284Y1453600D02*
X303450D01*
X331009Y1426041D01*
Y1053600D01*
X300D01*
Y1427616D01*
X26284Y1453600D01*
D02*
D164*
X39037Y1445441D02*
X38448Y1444853D01*
X37272Y1444265D01*
X35507D01*
X34331Y1444853D01*
X33743Y1445441D01*
X33154Y1446618D01*
Y1448971D01*
X33743Y1450147D01*
X34331Y1450735D01*
X35507Y1451324D01*
X37272D01*
X38448Y1450735D01*
X39037Y1450147D01*
X41254Y1446618D02*
X41254Y1448971D01*
X41843Y1450147D01*
X42431Y1450735D01*
X43607Y1451324D01*
X44784D01*
X45960Y1450735D01*
X46548Y1450147D01*
X47137Y1448971D01*
Y1446618D01*
X46548Y1445441D01*
X45960Y1444853D01*
X44784Y1444265D01*
X43607D01*
X42431Y1444853D01*
X41843Y1445441D01*
X41254Y1446618D01*
X49354Y1444265D02*
X49354Y1451324D01*
X52296Y1447794D01*
X55237Y1451324D01*
Y1444265D01*
X57454D02*
X57454Y1451324D01*
X60396Y1447794D01*
X63337Y1451324D01*
Y1444265D01*
X65554Y1446029D02*
X66143Y1444853D01*
X67319Y1444265D01*
X69672D01*
X70848Y1444853D01*
X71437Y1446029D01*
X70848Y1447206D01*
X69672Y1447794D01*
X67319D01*
X66143Y1448382D01*
X65554Y1449559D01*
X66143Y1450735D01*
X67319Y1451324D01*
X69672D01*
X70848Y1450735D01*
X71437Y1449559D01*
X232937Y1444441D02*
X232348Y1443853D01*
X231172Y1443265D01*
X229407D01*
X228231Y1443853D01*
X227643Y1444441D01*
X227054Y1445618D01*
Y1447971D01*
X227643Y1449147D01*
X228231Y1449735D01*
X229407Y1450324D01*
X231172D01*
X232348Y1449735D01*
X232937Y1449147D01*
X235154Y1443265D02*
X235154Y1450324D01*
Y1446794D02*
X241037Y1446794D01*
Y1443265D02*
X241037Y1450324D01*
X243254Y1443265D02*
X246196Y1450324D01*
X249137Y1443265D01*
X244431Y1446206D02*
X247960Y1446206D01*
X251354Y1445029D02*
X251943Y1443853D01*
X253119Y1443265D01*
X255472D01*
X256648Y1443853D01*
X257237Y1445029D01*
X256648Y1446206D01*
X255472Y1446794D01*
X253119D01*
X251943Y1447382D01*
X251354Y1448559D01*
X251943Y1449735D01*
X253119Y1450324D01*
X255472D01*
X256648Y1449735D01*
X257237Y1448559D01*
X259454Y1445029D02*
X260043Y1443853D01*
X261219Y1443265D01*
X263572D01*
X264748Y1443853D01*
X265337Y1445029D01*
X264748Y1446206D01*
X263572Y1446794D01*
X261219D01*
X260043Y1447382D01*
X259454Y1448559D01*
X260043Y1449735D01*
X261219Y1450324D01*
X263572D01*
X264748Y1449735D01*
X265337Y1448559D01*
X267554Y1443265D02*
X269907Y1443265D01*
X268731D02*
X268731Y1450324D01*
X267554D02*
X269907Y1450324D01*
X271854Y1445029D02*
X272443Y1443853D01*
X273619Y1443265D01*
X275972D01*
X277148Y1443853D01*
X277737Y1445029D01*
X277148Y1446206D01*
X275972Y1446794D01*
X273619D01*
X272443Y1447382D01*
X271854Y1448559D01*
X272443Y1449735D01*
X273619Y1450324D01*
X275972D01*
X277148Y1449735D01*
X277737Y1448559D01*
X0Y0D02*
M02*
