G04 GENERATED BY PULSONIX 12.5 GERBER.DLL 9362*
G04 #@! TF.GenerationSoftware,Pulsonix,Pulsonix,12.5.9360*
G04 #@! TF.CreationDate,2023-08-16T02:30:58+04:00*
G04 #@! TF.Part,Single*
%INCOMPARATOR INTERFACE V2*%
%LNTOP PASTE MASK*%
%FSLAX35Y35*%
%LPD*%
%MOIN*%
G04 #@! TF.FileFunction,Paste,Top*
G04 #@! TF.FilePolarity,Positive*
G04 #@! TA.AperFunction,SMDPad,CuDef*
%ADD152R,0.01970X0.02360*%
%ADD153R,0.02360X0.01970*%
G04 #@! TA.AperFunction,ComponentPad*
%ADD154R,0.03000X0.03000*%
%ADD155C,0.03000*%
%ADD156C,0.04429*%
G04 #@! TA.AperFunction,SMDPad,CuDef*
%ADD157R,0.05413X0.01280*%
%ADD158R,0.05709X0.00591*%
%ADD159R,0.04626X0.01280*%
%ADD160R,0.02362X0.03150*%
%ADD161R,0.00886X0.04921*%
%ADD162R,0.03250X0.02750*%
G04 #@! TD.AperFunction*
X0Y0D02*
D02*
D152*
X16554Y1285900D03*
Y1329500D03*
Y1335700D03*
Y1342100D03*
Y1348300D03*
X16754Y1276900D03*
X16954Y1299100D03*
Y1305500D03*
X20354Y1405700D03*
X23554Y1285900D03*
Y1329500D03*
Y1335700D03*
Y1342100D03*
Y1348300D03*
X23754Y1276900D03*
X23954Y1299100D03*
Y1305500D03*
X25554Y1436300D03*
X27354Y1405700D03*
X32554Y1436300D03*
X39354Y1273900D03*
Y1280300D03*
Y1286500D03*
Y1292900D03*
X41754Y1337500D03*
Y1343700D03*
Y1349900D03*
Y1356100D03*
X46354Y1273900D03*
Y1280300D03*
Y1286500D03*
Y1292900D03*
X48154Y1435900D03*
X48754Y1337500D03*
Y1343700D03*
Y1349900D03*
Y1356100D03*
X50954Y1407500D03*
X55154Y1435900D03*
X57954Y1407500D03*
X60954Y1163700D03*
X61154Y1173700D03*
X61954Y1223500D03*
X62154Y1230100D03*
X67954Y1163700D03*
X68154Y1173700D03*
X68954Y1223500D03*
X69154Y1230100D03*
X218754Y1296300D03*
X225754D03*
X261954Y1190900D03*
X262154Y1197500D03*
X268954Y1190900D03*
X269154Y1197500D03*
D02*
D153*
X15054Y1172600D03*
Y1179600D03*
X17854Y1411800D03*
Y1418800D03*
X18854Y1426600D03*
Y1433600D03*
X20854Y1172600D03*
Y1179600D03*
X21654Y1194500D03*
Y1201500D03*
X27854Y1194500D03*
Y1201500D03*
X35854Y1403600D03*
Y1410600D03*
X44654Y1403600D03*
Y1410600D03*
X54854Y1165200D03*
Y1172200D03*
X58254Y1413600D03*
Y1420600D03*
X59854Y1189900D03*
Y1196900D03*
X60054Y1204700D03*
Y1211700D03*
X61254Y1426800D03*
Y1433800D03*
X68054Y1182800D03*
Y1189800D03*
X74454Y1182800D03*
Y1189800D03*
X74654Y1165200D03*
Y1172200D03*
X74854Y1207700D03*
Y1214700D03*
X128254Y1167700D03*
Y1174700D03*
Y1182700D03*
Y1189700D03*
X135054Y1167700D03*
Y1174700D03*
Y1182700D03*
Y1189700D03*
X211254Y1305600D03*
Y1312600D03*
D02*
D154*
X146412Y1410002D03*
X177012Y1129202D03*
X293212Y1371202D03*
D02*
D155*
X127012Y1119202D03*
Y1129202D03*
X137012Y1119202D03*
Y1129202D03*
X146412Y1420002D03*
X147012Y1119202D03*
Y1129202D03*
X156412Y1410002D03*
Y1420002D03*
X157012Y1119202D03*
Y1129202D03*
X166412Y1410002D03*
Y1420002D03*
X167012Y1119202D03*
Y1129202D03*
X176412Y1410002D03*
Y1420002D03*
X177012Y1119202D03*
X186412Y1410002D03*
Y1420002D03*
X196412Y1410002D03*
Y1420002D03*
X206412Y1410002D03*
Y1420002D03*
X283212Y1161202D03*
Y1171202D03*
Y1181202D03*
Y1191202D03*
Y1201202D03*
Y1211202D03*
Y1221202D03*
Y1231202D03*
Y1241202D03*
Y1251202D03*
Y1261202D03*
Y1271202D03*
Y1281202D03*
Y1291202D03*
Y1301202D03*
Y1311202D03*
Y1321202D03*
Y1331202D03*
Y1341202D03*
Y1351202D03*
Y1361202D03*
Y1371202D03*
X293212Y1161202D03*
Y1171202D03*
Y1181202D03*
Y1191202D03*
Y1201202D03*
Y1211202D03*
Y1221202D03*
Y1231202D03*
Y1241202D03*
Y1251202D03*
Y1261202D03*
Y1271202D03*
Y1281202D03*
Y1291202D03*
Y1301202D03*
Y1311202D03*
Y1321202D03*
Y1331202D03*
Y1341202D03*
Y1351202D03*
Y1361202D03*
D02*
D156*
X16366Y1063046D03*
Y1088046D03*
X32862Y1063046D03*
Y1088046D03*
X49358Y1063046D03*
Y1088046D03*
X65854Y1063046D03*
Y1088046D03*
X82350Y1063046D03*
Y1088046D03*
X98846Y1063046D03*
Y1088046D03*
X232662Y1063046D03*
Y1088046D03*
X249158Y1063046D03*
Y1088046D03*
X265654Y1063046D03*
Y1088046D03*
X282150Y1063046D03*
Y1088046D03*
X298646Y1063046D03*
Y1088046D03*
X315142Y1063046D03*
Y1088046D03*
D02*
D157*
X82455Y1166200D03*
Y1171200D03*
Y1176200D03*
Y1181200D03*
Y1186200D03*
Y1191200D03*
Y1196200D03*
Y1201200D03*
Y1206200D03*
Y1211200D03*
X120054Y1166200D03*
Y1171200D03*
Y1176200D03*
Y1181200D03*
Y1186200D03*
Y1191200D03*
Y1196200D03*
Y1201200D03*
Y1206200D03*
Y1211200D03*
D02*
D158*
X28054Y1415146D03*
Y1417705D03*
Y1420264D03*
Y1422823D03*
Y1425382D03*
Y1427941D03*
Y1430500D03*
X50102Y1415146D03*
Y1417705D03*
Y1420264D03*
Y1422823D03*
Y1425382D03*
Y1427941D03*
Y1430500D03*
D02*
D159*
X236824Y1308700D03*
Y1313700D03*
Y1318700D03*
Y1323700D03*
Y1328700D03*
Y1333700D03*
Y1338700D03*
X258084Y1308700D03*
Y1313700D03*
Y1318700D03*
Y1323700D03*
Y1328700D03*
Y1333700D03*
Y1338700D03*
D02*
D160*
X218855Y1304839D03*
Y1313500D03*
X225548D03*
X225747Y1304839D03*
D02*
D161*
X31377Y1304533D03*
Y1327667D03*
X33936Y1304533D03*
Y1327667D03*
X36495Y1304533D03*
Y1327667D03*
X39054Y1304533D03*
Y1327667D03*
X41613Y1304533D03*
Y1327667D03*
X44172Y1304533D03*
Y1327667D03*
X46731Y1304533D03*
Y1327667D03*
D02*
D162*
X42354Y1188900D03*
X42754Y1198100D03*
X42954Y1180300D03*
Y1212300D03*
X51354Y1188900D03*
X51754Y1198100D03*
X51954Y1180300D03*
Y1212300D03*
X0Y0D02*
M02*
