G04 GENERATED BY PULSONIX 12.5 GERBER.DLL 9362*
G04 #@! TF.GenerationSoftware,Pulsonix,Pulsonix,12.5.9360*
G04 #@! TF.CreationDate,2023-08-16T02:30:59+04:00*
G04 #@! TF.Part,Single*
%INCOMPARATOR INTERFACE V2*%
%LNBOTTOM SOLDER MASK*%
%FSLAX35Y35*%
%LPD*%
%MOIN*%
G04 #@! TF.FileFunction,Soldermask,Bot*
G04 #@! TF.FilePolarity,Negative*
G04 #@! TA.AperFunction,ComponentPad*
%ADD15R,0.07000X0.07000*%
%ADD16C,0.07000*%
G04 #@! TA.AperFunction,Profile*
%ADD152C,0.00600*%
G04 #@! TA.AperFunction,ViaPad*
%ADD153C,0.04000*%
G04 #@! TA.AperFunction,WasherPad*
%ADD154C,0.21000*%
%ADD155C,0.16748*%
G04 #@! TA.AperFunction,ComponentPad*
%ADD158C,0.09858*%
G04 #@! TD.AperFunction*
X0Y0D02*
D02*
D15*
X146412Y1410002D03*
X177012Y1129202D03*
X293212Y1371202D03*
D02*
D16*
X127012Y1119202D03*
Y1129202D03*
X137012Y1119202D03*
Y1129202D03*
X146412Y1420002D03*
X147012Y1119202D03*
Y1129202D03*
X156412Y1410002D03*
Y1420002D03*
X157012Y1119202D03*
Y1129202D03*
X166412Y1410002D03*
Y1420002D03*
X167012Y1119202D03*
Y1129202D03*
X176412Y1410002D03*
Y1420002D03*
X177012Y1119202D03*
X186412Y1410002D03*
Y1420002D03*
X196412Y1410002D03*
Y1420002D03*
X206412Y1410002D03*
Y1420002D03*
X283212Y1161202D03*
Y1171202D03*
Y1181202D03*
Y1191202D03*
Y1201202D03*
Y1211202D03*
Y1221202D03*
Y1231202D03*
Y1241202D03*
Y1251202D03*
Y1261202D03*
Y1271202D03*
Y1281202D03*
Y1291202D03*
Y1301202D03*
Y1311202D03*
Y1321202D03*
Y1331202D03*
Y1341202D03*
Y1351202D03*
Y1361202D03*
Y1371202D03*
X293212Y1161202D03*
Y1171202D03*
Y1181202D03*
Y1191202D03*
Y1201202D03*
Y1211202D03*
Y1221202D03*
Y1231202D03*
Y1241202D03*
Y1251202D03*
Y1261202D03*
Y1271202D03*
Y1281202D03*
Y1291202D03*
Y1301202D03*
Y1311202D03*
Y1321202D03*
Y1331202D03*
Y1341202D03*
Y1351202D03*
Y1361202D03*
D02*
D152*
X26284Y1453600D02*
X303450D01*
X331009Y1426041D01*
Y1053600D01*
X300D01*
Y1427616D01*
X26284Y1453600D01*
D02*
D153*
X14854Y1426800D03*
X16654Y1354100D03*
X19254Y1166700D03*
X32854Y1113500D03*
X36654Y1196300D03*
X36854Y1339300D03*
X37054Y1212300D03*
X39054Y1321500D03*
X40254Y1427500D03*
Y1443900D03*
X40454Y1174100D03*
Y1414900D03*
X49358Y1065096D03*
X68854Y1426800D03*
X99654Y1126500D03*
X111054Y1246600D03*
X112431Y1285400D03*
X113054Y1165900D03*
Y1176900D03*
Y1180500D03*
X118054Y1256800D03*
X120054Y1214700D03*
X128654Y1162300D03*
X131654Y1192700D03*
X195254Y1370700D03*
X211454Y1296300D03*
X236854Y1305100D03*
X244654Y1280500D03*
X247654Y1193900D03*
X251654Y1280900D03*
X256454Y1195500D03*
X265454Y1338700D03*
D02*
D154*
X55612Y1125778D03*
Y1383278D03*
X239612Y1125778D03*
Y1383278D03*
D02*
D155*
X165654Y1070762D03*
D02*
D158*
X16366Y1063046D03*
Y1088046D03*
X32862Y1063046D03*
Y1088046D03*
X49358Y1063046D03*
Y1088046D03*
X65854Y1063046D03*
Y1088046D03*
X82350Y1063046D03*
Y1088046D03*
X98846Y1063046D03*
Y1088046D03*
X232662Y1063046D03*
Y1088046D03*
X249158Y1063046D03*
Y1088046D03*
X265654Y1063046D03*
Y1088046D03*
X282150Y1063046D03*
Y1088046D03*
X298646Y1063046D03*
Y1088046D03*
X315142Y1063046D03*
Y1088046D03*
X0Y0D02*
M02*
