G04 GENERATED BY PULSONIX 12.5 GERBER.DLL 9362*
G04 #@! TF.GenerationSoftware,Pulsonix,Pulsonix,12.5.9360*
G04 #@! TF.CreationDate,2023-08-16T02:30:57+04:00*
G04 #@! TF.Part,Single*
%INCOMPARATOR INTERFACE V2*%
%LNTOP COPPER*%
%FSLAX35Y35*%
%LPD*%
%MOIN*%
G04 #@! TF.FileFunction,Copper,L1,Top*
G04 #@! TF.FilePolarity,Positive*
G04 #@! TA.AperFunction,ViaPad*
%ADD18C,0.03000*%
G04 #@! TA.AperFunction,Conductor*
%ADD19C,0.00800*%
G04 #@! TA.AperFunction,ComponentPad*
%ADD71R,0.06000X0.06000*%
%ADD20C,0.06000*%
G04 #@! TA.AperFunction,Conductor*
%ADD139C,0.01200*%
%ADD140C,0.02000*%
G04 #@! TA.AperFunction,WasherPad*
%ADD141C,0.20000*%
%ADD142C,0.15748*%
G04 #@! TA.AperFunction,SMDPad,CuDef*
%ADD143R,0.03940X0.04330*%
%ADD144R,0.04330X0.03940*%
G04 #@! TA.AperFunction,ComponentPad*
%ADD145C,0.08858*%
G04 #@! TA.AperFunction,SMDPad,CuDef*
%ADD146R,0.06693X0.02559*%
%ADD147R,0.06299X0.01181*%
%ADD148R,0.05906X0.02559*%
%ADD149R,0.04724X0.05512*%
%ADD150R,0.01772X0.05807*%
%ADD151R,0.06000X0.05500*%
G04 #@! TD.AperFunction*
X0Y0D02*
D02*
D18*
X14854Y1426800D03*
X16654Y1354100D03*
X19254Y1166700D03*
X32854Y1113500D03*
X36654Y1196300D03*
X36854Y1339300D03*
X37054Y1212300D03*
X39054Y1321500D03*
X40254Y1427500D03*
Y1443900D03*
X40454Y1174100D03*
Y1414900D03*
X49358Y1065096D03*
X68854Y1426800D03*
X99654Y1126500D03*
X111054Y1246600D03*
X112431Y1285400D03*
X113054Y1165900D03*
Y1176900D03*
Y1180500D03*
X118054Y1256800D03*
X120054Y1214700D03*
X128654Y1162300D03*
X131654Y1192700D03*
X195254Y1370700D03*
X211454Y1296300D03*
X236854Y1305100D03*
X244654Y1280500D03*
X247654Y1193900D03*
X251654Y1280900D03*
X256454Y1195500D03*
X265454Y1338700D03*
D02*
D19*
X16554Y1348300D02*
Y1354000D01*
X16654Y1354100D01*
X16954Y1305500D02*
Y1309500D01*
X19354Y1311900D01*
X39054D01*
Y1304533D01*
X17854Y1418800D02*
Y1420100D01*
X20654Y1422900D01*
X22454D01*
X23454Y1423900D01*
Y1424382D01*
X24454Y1425382D01*
X28054D01*
X18854Y1426600D02*
X15054D01*
X14854Y1426800D01*
X28054Y1425382D02*
X38136D01*
X40254Y1427500D01*
X35854Y1410600D02*
X36154D01*
X40454Y1414900D01*
X39054Y1304533D02*
Y1293200D01*
X39354Y1292900D01*
X39054Y1327667D02*
Y1321500D01*
X40254Y1435900D02*
X48154D01*
X40254D02*
X32554D01*
Y1436300D01*
X40254Y1435900D02*
Y1443900D01*
X40454Y1414900D02*
X44654Y1410700D01*
Y1410600D01*
X41754Y1337500D02*
X38654D01*
X36854Y1339300D01*
X50102Y1425382D02*
X59836D01*
X61254Y1426800D01*
X68854D01*
X74654Y1172200D02*
X75654Y1171200D01*
X82455D01*
X74654Y1172200D02*
X69654D01*
X68154Y1173700D01*
X82455Y1206200D02*
X76354D01*
X74854Y1207700D01*
X128254Y1174700D02*
X135054D01*
X128254D02*
X126754Y1176200D01*
X120054D01*
X128254Y1182700D02*
X135054D01*
X128254D02*
X126754Y1181200D01*
X120054D01*
X283212Y1341202D02*
X282552D01*
X270454Y1353300D01*
X111454D01*
X102654Y1344500D01*
X54454D01*
D02*
D71*
X146412Y1410002D03*
X177012Y1129202D03*
X293212Y1371202D03*
D02*
D20*
X127012Y1119202D03*
Y1129202D03*
X137012Y1119202D03*
Y1129202D03*
X146412Y1420002D03*
X147012Y1119202D03*
Y1129202D03*
X156412Y1410002D03*
Y1420002D03*
X157012Y1119202D03*
Y1129202D03*
X166412Y1410002D03*
Y1420002D03*
X167012Y1119202D03*
Y1129202D03*
X176412Y1410002D03*
Y1420002D03*
X177012Y1119202D03*
X186412Y1410002D03*
Y1420002D03*
X196412Y1410002D03*
Y1420002D03*
X206412Y1410002D03*
Y1420002D03*
X283212Y1161202D03*
Y1171202D03*
Y1181202D03*
Y1191202D03*
Y1201202D03*
Y1211202D03*
Y1221202D03*
Y1231202D03*
Y1241202D03*
Y1251202D03*
Y1261202D03*
Y1271202D03*
Y1281202D03*
Y1291202D03*
Y1301202D03*
Y1311202D03*
Y1321202D03*
Y1331202D03*
Y1341202D03*
Y1351202D03*
Y1361202D03*
Y1371202D03*
X293212Y1161202D03*
Y1171202D03*
Y1181202D03*
Y1191202D03*
Y1201202D03*
Y1211202D03*
Y1221202D03*
Y1231202D03*
Y1241202D03*
Y1251202D03*
Y1261202D03*
Y1271202D03*
Y1281202D03*
Y1291202D03*
Y1301202D03*
Y1311202D03*
Y1321202D03*
Y1331202D03*
Y1341202D03*
Y1351202D03*
Y1361202D03*
D02*
D139*
X12554Y1156500D02*
X22454D01*
X27854Y1161900D01*
Y1194500D01*
X16554Y1335700D02*
Y1342100D01*
Y1335700D02*
Y1329500D01*
X16754Y1290900D02*
Y1276900D01*
Y1290900D02*
X16554D01*
Y1285900D01*
X16754Y1290900D02*
Y1297500D01*
X16954D01*
Y1299100D01*
X17854Y1411800D02*
X19154D01*
X21654Y1414300D01*
Y1418864D01*
X23054Y1420264D01*
X28054D01*
X17854Y1411800D02*
Y1409200D01*
X20354Y1406700D01*
Y1405700D01*
X18854Y1433600D02*
X21554Y1436300D01*
X25554D01*
X20854Y1172600D02*
Y1169700D01*
X19254Y1168100D01*
Y1166700D01*
X20854Y1179600D02*
Y1193700D01*
X21654Y1194500D01*
X20854Y1179600D02*
X15054D01*
X21654Y1201500D02*
Y1201700D01*
X22454D01*
X21654Y1201500D02*
X27854D01*
X22454Y1201700D02*
Y1202800D01*
X23754Y1204100D01*
Y1276900D01*
X23554Y1335700D02*
X21454D01*
X20054Y1337100D01*
Y1357300D01*
X23054Y1360300D01*
X47454D01*
X48754Y1359000D01*
Y1356100D01*
X23554Y1335700D02*
X31654D01*
X33936Y1333418D01*
Y1327667D01*
X23554Y1342100D02*
X29895D01*
X36495Y1335500D01*
Y1327667D01*
X23554Y1342100D02*
Y1348300D01*
X23954Y1305500D02*
Y1307800D01*
X26054Y1309900D01*
X34654D01*
X36495Y1308059D01*
Y1304533D01*
X23954Y1305500D02*
Y1299100D01*
X25554Y1436300D02*
Y1444200D01*
X30254Y1448900D01*
X76854D01*
X155054Y1370700D01*
X195254D01*
X27354Y1405700D02*
X23654Y1409400D01*
Y1416505D01*
X24854Y1417705D01*
X28054D01*
X27354Y1405700D02*
Y1404500D01*
X35854D01*
Y1403600D01*
X28054Y1430500D02*
Y1427941D01*
Y1430500D02*
X21954D01*
X18854Y1433600D01*
X31377Y1304533D02*
X33936D01*
X31454Y1415146D02*
X31900D01*
X33454Y1416700D01*
Y1420264D01*
X31454Y1415146D02*
X28054D01*
X33454Y1285900D02*
X23554D01*
X33454D02*
Y1271700D01*
X35654Y1269500D01*
X45254D01*
X46354Y1270600D01*
Y1273900D01*
X33454Y1285900D02*
X31377Y1287977D01*
Y1304533D01*
X33454Y1420264D02*
X50102D01*
X33454D02*
Y1421300D01*
X31931Y1422823D01*
X28054D01*
X33936Y1327667D02*
X31377D01*
X39354Y1280300D02*
Y1286500D01*
Y1280300D02*
Y1273900D01*
X41754Y1349900D02*
Y1356100D01*
Y1349900D02*
Y1343700D01*
X42754Y1198100D02*
X38454D01*
X36654Y1196300D01*
X42954Y1180300D02*
Y1176600D01*
X40454Y1174100D01*
X42954Y1212300D02*
X37054D01*
X44172Y1304533D02*
Y1312982D01*
X40854Y1316300D01*
X25554D01*
X23554Y1318300D01*
Y1329500D01*
X46354Y1292900D02*
Y1295800D01*
X41613Y1300541D01*
Y1304533D01*
X46354Y1292900D02*
Y1286500D01*
X46731Y1304533D02*
X44172D01*
X46731D02*
X50421D01*
X52054Y1302900D01*
Y1281500D01*
X50854Y1280300D01*
X46354D01*
X46731Y1327667D02*
X52821D01*
X54454Y1329300D01*
Y1344500D01*
X46731Y1327667D02*
X44172D01*
X48754Y1337500D02*
Y1334300D01*
X47554Y1333100D01*
X43054D01*
X41613Y1331659D01*
Y1327667D01*
X48754Y1337500D02*
Y1343700D01*
X49054Y1349900D02*
X48754D01*
X49054D02*
X51054D01*
X53254Y1352100D01*
Y1357900D01*
X47054Y1364100D01*
X36854D01*
X28054Y1372900D01*
Y1387100D01*
X40454Y1399500D01*
Y1405900D01*
X39254Y1407100D01*
X33254D01*
X31454Y1408900D01*
Y1415146D01*
X49358Y1065096D02*
X42354Y1072100D01*
Y1114400D01*
X32654Y1124100D01*
Y1184900D01*
X36654Y1188900D01*
X42354D01*
X50102Y1420264D02*
Y1417705D01*
Y1430500D02*
Y1427941D01*
X50954Y1407500D02*
Y1413546D01*
X50102Y1414398D01*
Y1415146D01*
X50954Y1407500D02*
Y1406300D01*
X48254Y1403600D01*
X44654D01*
X51354Y1188900D02*
X58854D01*
X59854Y1189900D01*
X51954Y1180300D02*
Y1188300D01*
X51354Y1188900D01*
X51954Y1212300D02*
Y1198300D01*
X51754Y1198100D01*
X51954Y1212300D02*
X52554Y1211700D01*
X60054D01*
X54454Y1344500D02*
X49054Y1349900D01*
X54854Y1165200D02*
X59454D01*
X54854Y1172200D02*
X59654D01*
X61154Y1173700D01*
X54854Y1172200D02*
X52254D01*
X49654Y1169600D01*
Y1157700D01*
X52654Y1154700D01*
X88654D01*
X91454Y1157500D01*
Y1180500D01*
X85754Y1186200D01*
X82455D01*
X58254Y1413600D02*
X57354D01*
X54454Y1416500D01*
Y1421700D01*
X53331Y1422823D01*
X50102D01*
X58254Y1413600D02*
Y1408700D01*
X57954D01*
Y1407500D01*
X59454Y1165200D02*
X62954Y1168700D01*
X64654D01*
X59454Y1165200D02*
X60954Y1163700D01*
X59854Y1189900D02*
X61754D01*
X68054Y1196200D01*
X82455D01*
X59854Y1201700D02*
Y1203300D01*
X60054D01*
Y1204700D01*
X59854Y1201700D02*
X22454D01*
X59854D02*
Y1196900D01*
X60054Y1211700D02*
X63554D01*
X74054Y1201200D01*
X82455D01*
X61254Y1433800D02*
X77154D01*
X149254Y1361700D01*
X258654D01*
X286054Y1389100D01*
X303454D01*
X306854Y1385700D01*
Y1236802D01*
X301254Y1231202D01*
X293212D01*
X61254Y1433800D02*
X57954Y1437100D01*
X55154D01*
Y1435900D01*
X61254Y1433800D02*
X61054D01*
X57754Y1430500D01*
X50102D01*
X64654Y1168700D02*
X77454D01*
X79954Y1166200D01*
X82455D01*
X67954Y1163700D02*
X73154D01*
X74654Y1165200D01*
X68054Y1182800D02*
X74454D01*
X68054Y1189800D02*
X64654Y1186400D01*
Y1168700D01*
X68054Y1189800D02*
X74454D01*
X74854Y1214700D02*
X68854D01*
X62154Y1221400D01*
Y1230100D01*
X82455Y1176200D02*
X86954D01*
X88254Y1174900D01*
Y1162700D01*
X85054Y1159500D01*
X80354D01*
X74654Y1165200D01*
X82455Y1191200D02*
X75854D01*
X74454Y1189800D01*
X82455Y1211200D02*
X86154D01*
X89054Y1208300D01*
Y1192600D01*
X87654Y1191200D01*
X82455D01*
Y1211200D02*
X78354D01*
X74854Y1214700D01*
X113054Y1176900D02*
X113754Y1176200D01*
X120054D01*
X113054Y1176900D02*
Y1180500D01*
X113754Y1181200D01*
X120054D01*
Y1166200D02*
X113354D01*
X113054Y1165900D01*
X120054Y1166200D02*
Y1171200D01*
Y1201200D02*
X189754D01*
X204454Y1215900D01*
X287910D01*
X293212Y1221202D01*
X120054Y1211200D02*
Y1214699D01*
X120054Y1214700D01*
X128254Y1167700D02*
Y1162700D01*
X128654Y1162300D01*
X128254Y1167700D02*
X126754Y1166200D01*
X120054D01*
X128254Y1167700D02*
X135054D01*
X131654Y1189700D02*
Y1192700D01*
Y1189700D02*
X128254D01*
X135054D02*
X131654D01*
X156412Y1410002D02*
X156152D01*
X151454Y1414700D01*
Y1433100D01*
X155654Y1437300D01*
X306454D01*
X324054Y1419700D01*
Y1096958D01*
X315142Y1088046D01*
X156412Y1420002D02*
Y1429002D01*
X161710Y1434300D01*
X305054D01*
X321054Y1418300D01*
Y1108500D01*
X300600Y1088046D01*
X298646D01*
X166412Y1420002D02*
Y1424458D01*
X171254Y1429300D01*
X302254D01*
X316254Y1415300D01*
Y1138646D01*
X265654Y1088046D01*
X177012Y1119202D02*
X204254D01*
X232662Y1090794D01*
Y1088046D01*
X211454Y1296300D02*
X211254Y1296500D01*
Y1305600D01*
X218754Y1296300D02*
X211454D01*
X218855Y1313500D02*
X212154D01*
X211254Y1312600D01*
X225747Y1304839D02*
Y1296307D01*
X225754Y1296300D01*
X236824Y1308700D02*
Y1305130D01*
X236854Y1305100D01*
X236824Y1313700D02*
X232854D01*
X231054Y1311900D01*
Y1307500D01*
X228393Y1304839D01*
X225747D01*
X236824Y1318700D02*
X220055D01*
X218855Y1317500D01*
Y1313500D01*
X236824Y1333700D02*
X241054D01*
X243254Y1335900D01*
Y1340900D01*
X240454Y1343700D01*
X192454D01*
X135854Y1287100D01*
Y1252900D01*
X108854Y1225900D01*
Y1191400D01*
X114054Y1186200D01*
X120054D01*
X236824Y1338700D02*
X193854D01*
X139454Y1284300D01*
Y1252100D01*
X111054Y1223700D01*
Y1199800D01*
X114654Y1196200D01*
X120054D01*
X258084Y1338700D02*
X265454D01*
X261954Y1190900D02*
X257054D01*
X256454Y1191500D01*
Y1195500D01*
X262154Y1197500D02*
Y1202000D01*
X261254Y1202900D01*
X251654D01*
X247654Y1198900D01*
Y1193900D01*
X268954Y1190900D02*
X272454D01*
X277054Y1186300D01*
X288254D01*
X293156Y1191202D01*
X293212D01*
X269154Y1197500D02*
X276914D01*
X283212Y1191202D01*
X282150Y1088046D02*
X285800D01*
X318654Y1120900D01*
Y1416100D01*
X303254Y1431500D01*
X168254D01*
X161454Y1424700D01*
Y1414960D01*
X166412Y1410002D01*
X293212Y1341202D02*
X287710Y1335700D01*
X277654D01*
X263854Y1349500D01*
X133552D01*
X99654Y1315602D01*
Y1126500D01*
D02*
D140*
X12554Y1156500D02*
Y1091857D01*
X16366Y1088046D01*
X12554Y1156500D02*
Y1172600D01*
X15054D01*
X157012Y1119202D02*
Y1116300D01*
X217212Y1056100D01*
X242213D01*
X249158Y1063046D01*
X157012Y1129202D02*
X158654D01*
X161854Y1126002D01*
Y1116700D01*
X215509Y1063046D01*
X232662D01*
X186412Y1410002D02*
Y1408142D01*
X190054Y1404500D01*
X305654D01*
X311054Y1399100D01*
Y1149942D01*
X249158Y1088046D01*
D02*
D141*
X55612Y1125778D03*
Y1383278D03*
X239612Y1125778D03*
Y1383278D03*
D02*
D142*
X165654Y1070762D03*
D02*
D143*
X16554Y1285900D03*
Y1329500D03*
Y1335700D03*
Y1342100D03*
Y1348300D03*
X16754Y1276900D03*
X16954Y1299100D03*
Y1305500D03*
X20354Y1405700D03*
X23554Y1285900D03*
Y1329500D03*
Y1335700D03*
Y1342100D03*
Y1348300D03*
X23754Y1276900D03*
X23954Y1299100D03*
Y1305500D03*
X25554Y1436300D03*
X27354Y1405700D03*
X32554Y1436300D03*
X39354Y1273900D03*
Y1280300D03*
Y1286500D03*
Y1292900D03*
X41754Y1337500D03*
Y1343700D03*
Y1349900D03*
Y1356100D03*
X46354Y1273900D03*
Y1280300D03*
Y1286500D03*
Y1292900D03*
X48154Y1435900D03*
X48754Y1337500D03*
Y1343700D03*
Y1349900D03*
Y1356100D03*
X50954Y1407500D03*
X55154Y1435900D03*
X57954Y1407500D03*
X60954Y1163700D03*
X61154Y1173700D03*
X61954Y1223500D03*
X62154Y1230100D03*
X67954Y1163700D03*
X68154Y1173700D03*
X68954Y1223500D03*
X69154Y1230100D03*
X218754Y1296300D03*
X225754D03*
X261954Y1190900D03*
X262154Y1197500D03*
X268954Y1190900D03*
X269154Y1197500D03*
D02*
D144*
X15054Y1172600D03*
Y1179600D03*
X17854Y1411800D03*
Y1418800D03*
X18854Y1426600D03*
Y1433600D03*
X20854Y1172600D03*
Y1179600D03*
X21654Y1194500D03*
Y1201500D03*
X27854Y1194500D03*
Y1201500D03*
X35854Y1403600D03*
Y1410600D03*
X44654Y1403600D03*
Y1410600D03*
X54854Y1165200D03*
Y1172200D03*
X58254Y1413600D03*
Y1420600D03*
X59854Y1189900D03*
Y1196900D03*
X60054Y1204700D03*
Y1211700D03*
X61254Y1426800D03*
Y1433800D03*
X68054Y1182800D03*
Y1189800D03*
X74454Y1182800D03*
Y1189800D03*
X74654Y1165200D03*
Y1172200D03*
X74854Y1207700D03*
Y1214700D03*
X128254Y1167700D03*
Y1174700D03*
Y1182700D03*
Y1189700D03*
X135054Y1167700D03*
Y1174700D03*
Y1182700D03*
Y1189700D03*
X211254Y1305600D03*
Y1312600D03*
D02*
D145*
X16366Y1063046D03*
Y1088046D03*
X32862Y1063046D03*
Y1088046D03*
X49358Y1063046D03*
Y1088046D03*
X65854Y1063046D03*
Y1088046D03*
X82350Y1063046D03*
Y1088046D03*
X98846Y1063046D03*
Y1088046D03*
X232662Y1063046D03*
Y1088046D03*
X249158Y1063046D03*
Y1088046D03*
X265654Y1063046D03*
Y1088046D03*
X282150Y1063046D03*
Y1088046D03*
X298646Y1063046D03*
Y1088046D03*
X315142Y1063046D03*
Y1088046D03*
D02*
D146*
X82455Y1166200D03*
Y1171200D03*
Y1176200D03*
Y1181200D03*
Y1186200D03*
Y1191200D03*
Y1196200D03*
Y1201200D03*
Y1206200D03*
Y1211200D03*
X120054Y1166200D03*
Y1171200D03*
Y1176200D03*
Y1181200D03*
Y1186200D03*
Y1191200D03*
Y1196200D03*
Y1201200D03*
Y1206200D03*
Y1211200D03*
D02*
D147*
X28054Y1415146D03*
Y1417705D03*
Y1420264D03*
Y1422823D03*
Y1425382D03*
Y1427941D03*
Y1430500D03*
X50102Y1415146D03*
Y1417705D03*
Y1420264D03*
Y1422823D03*
Y1425382D03*
Y1427941D03*
Y1430500D03*
D02*
D148*
X236824Y1308700D03*
Y1313700D03*
Y1318700D03*
Y1323700D03*
Y1328700D03*
Y1333700D03*
Y1338700D03*
X258084Y1308700D03*
Y1313700D03*
Y1318700D03*
Y1323700D03*
Y1328700D03*
Y1333700D03*
Y1338700D03*
D02*
D149*
X218855Y1304839D03*
Y1313500D03*
X225548D03*
X225747Y1304839D03*
D02*
D150*
X31377Y1304533D03*
Y1327667D03*
X33936Y1304533D03*
Y1327667D03*
X36495Y1304533D03*
Y1327667D03*
X39054Y1304533D03*
Y1327667D03*
X41613Y1304533D03*
Y1327667D03*
X44172Y1304533D03*
Y1327667D03*
X46731Y1304533D03*
Y1327667D03*
D02*
D151*
X42354Y1188900D03*
X42754Y1198100D03*
X42954Y1180300D03*
Y1212300D03*
X51354Y1188900D03*
X51754Y1198100D03*
X51954Y1180300D03*
Y1212300D03*
X0Y0D02*
M02*
