G04 GENERATED BY PULSONIX 12.5 GERBER.DLL 9362*
G04 #@! TF.GenerationSoftware,Pulsonix,Pulsonix,12.5.9360*
G04 #@! TF.CreationDate,2023-08-16T02:30:58+04:00*
G04 #@! TF.Part,Single*
%INCOMPARATOR INTERFACE V2*%
%LNTOP SOLDER MASK*%
%FSLAX35Y35*%
%LPD*%
%MOIN*%
G04 #@! TF.FileFunction,Soldermask,Top*
G04 #@! TF.FilePolarity,Negative*
G04 #@! TA.AperFunction,ComponentPad*
%ADD15R,0.07000X0.07000*%
%ADD16C,0.07000*%
G04 #@! TA.AperFunction,Profile*
%ADD152C,0.00600*%
G04 #@! TA.AperFunction,ViaPad*
%ADD153C,0.04000*%
G04 #@! TA.AperFunction,WasherPad*
%ADD154C,0.21000*%
%ADD155C,0.16748*%
G04 #@! TA.AperFunction,SMDPad,CuDef*
%ADD156R,0.04940X0.05330*%
%ADD157R,0.05330X0.04940*%
G04 #@! TA.AperFunction,ComponentPad*
%ADD158C,0.09858*%
G04 #@! TA.AperFunction,SMDPad,CuDef*
%ADD159R,0.07693X0.03559*%
%ADD160R,0.07299X0.02181*%
%ADD161R,0.06906X0.03559*%
%ADD162R,0.05724X0.06512*%
%ADD163R,0.02772X0.06807*%
%ADD164R,0.07000X0.06500*%
G04 #@! TD.AperFunction*
X0Y0D02*
D02*
D15*
X146412Y1410002D03*
X177012Y1129202D03*
X293212Y1371202D03*
D02*
D16*
X127012Y1119202D03*
Y1129202D03*
X137012Y1119202D03*
Y1129202D03*
X146412Y1420002D03*
X147012Y1119202D03*
Y1129202D03*
X156412Y1410002D03*
Y1420002D03*
X157012Y1119202D03*
Y1129202D03*
X166412Y1410002D03*
Y1420002D03*
X167012Y1119202D03*
Y1129202D03*
X176412Y1410002D03*
Y1420002D03*
X177012Y1119202D03*
X186412Y1410002D03*
Y1420002D03*
X196412Y1410002D03*
Y1420002D03*
X206412Y1410002D03*
Y1420002D03*
X283212Y1161202D03*
Y1171202D03*
Y1181202D03*
Y1191202D03*
Y1201202D03*
Y1211202D03*
Y1221202D03*
Y1231202D03*
Y1241202D03*
Y1251202D03*
Y1261202D03*
Y1271202D03*
Y1281202D03*
Y1291202D03*
Y1301202D03*
Y1311202D03*
Y1321202D03*
Y1331202D03*
Y1341202D03*
Y1351202D03*
Y1361202D03*
Y1371202D03*
X293212Y1161202D03*
Y1171202D03*
Y1181202D03*
Y1191202D03*
Y1201202D03*
Y1211202D03*
Y1221202D03*
Y1231202D03*
Y1241202D03*
Y1251202D03*
Y1261202D03*
Y1271202D03*
Y1281202D03*
Y1291202D03*
Y1301202D03*
Y1311202D03*
Y1321202D03*
Y1331202D03*
Y1341202D03*
Y1351202D03*
Y1361202D03*
D02*
D152*
X26284Y1453600D02*
X303450D01*
X331009Y1426041D01*
Y1053600D01*
X300D01*
Y1427616D01*
X26284Y1453600D01*
D02*
D153*
X14854Y1426800D03*
X16654Y1354100D03*
X19254Y1166700D03*
X32854Y1113500D03*
X36654Y1196300D03*
X36854Y1339300D03*
X37054Y1212300D03*
X39054Y1321500D03*
X40254Y1427500D03*
Y1443900D03*
X40454Y1174100D03*
Y1414900D03*
X49358Y1065096D03*
X68854Y1426800D03*
X99654Y1126500D03*
X111054Y1246600D03*
X112431Y1285400D03*
X113054Y1165900D03*
Y1176900D03*
Y1180500D03*
X118054Y1256800D03*
X120054Y1214700D03*
X128654Y1162300D03*
X131654Y1192700D03*
X195254Y1370700D03*
X211454Y1296300D03*
X236854Y1305100D03*
X244654Y1280500D03*
X247654Y1193900D03*
X251654Y1280900D03*
X256454Y1195500D03*
X265454Y1338700D03*
D02*
D154*
X55612Y1125778D03*
Y1383278D03*
X239612Y1125778D03*
Y1383278D03*
D02*
D155*
X165654Y1070762D03*
D02*
D156*
X16554Y1285900D03*
Y1329500D03*
Y1335700D03*
Y1342100D03*
Y1348300D03*
X16754Y1276900D03*
X16954Y1299100D03*
Y1305500D03*
X20354Y1405700D03*
X23554Y1285900D03*
Y1329500D03*
Y1335700D03*
Y1342100D03*
Y1348300D03*
X23754Y1276900D03*
X23954Y1299100D03*
Y1305500D03*
X25554Y1436300D03*
X27354Y1405700D03*
X32554Y1436300D03*
X39354Y1273900D03*
Y1280300D03*
Y1286500D03*
Y1292900D03*
X41754Y1337500D03*
Y1343700D03*
Y1349900D03*
Y1356100D03*
X46354Y1273900D03*
Y1280300D03*
Y1286500D03*
Y1292900D03*
X48154Y1435900D03*
X48754Y1337500D03*
Y1343700D03*
Y1349900D03*
Y1356100D03*
X50954Y1407500D03*
X55154Y1435900D03*
X57954Y1407500D03*
X60954Y1163700D03*
X61154Y1173700D03*
X61954Y1223500D03*
X62154Y1230100D03*
X67954Y1163700D03*
X68154Y1173700D03*
X68954Y1223500D03*
X69154Y1230100D03*
X218754Y1296300D03*
X225754D03*
X261954Y1190900D03*
X262154Y1197500D03*
X268954Y1190900D03*
X269154Y1197500D03*
D02*
D157*
X15054Y1172600D03*
Y1179600D03*
X17854Y1411800D03*
Y1418800D03*
X18854Y1426600D03*
Y1433600D03*
X20854Y1172600D03*
Y1179600D03*
X21654Y1194500D03*
Y1201500D03*
X27854Y1194500D03*
Y1201500D03*
X35854Y1403600D03*
Y1410600D03*
X44654Y1403600D03*
Y1410600D03*
X54854Y1165200D03*
Y1172200D03*
X58254Y1413600D03*
Y1420600D03*
X59854Y1189900D03*
Y1196900D03*
X60054Y1204700D03*
Y1211700D03*
X61254Y1426800D03*
Y1433800D03*
X68054Y1182800D03*
Y1189800D03*
X74454Y1182800D03*
Y1189800D03*
X74654Y1165200D03*
Y1172200D03*
X74854Y1207700D03*
Y1214700D03*
X128254Y1167700D03*
Y1174700D03*
Y1182700D03*
Y1189700D03*
X135054Y1167700D03*
Y1174700D03*
Y1182700D03*
Y1189700D03*
X211254Y1305600D03*
Y1312600D03*
D02*
D158*
X16366Y1063046D03*
Y1088046D03*
X32862Y1063046D03*
Y1088046D03*
X49358Y1063046D03*
Y1088046D03*
X65854Y1063046D03*
Y1088046D03*
X82350Y1063046D03*
Y1088046D03*
X98846Y1063046D03*
Y1088046D03*
X232662Y1063046D03*
Y1088046D03*
X249158Y1063046D03*
Y1088046D03*
X265654Y1063046D03*
Y1088046D03*
X282150Y1063046D03*
Y1088046D03*
X298646Y1063046D03*
Y1088046D03*
X315142Y1063046D03*
Y1088046D03*
D02*
D159*
X82455Y1166200D03*
Y1171200D03*
Y1176200D03*
Y1181200D03*
Y1186200D03*
Y1191200D03*
Y1196200D03*
Y1201200D03*
Y1206200D03*
Y1211200D03*
X120054Y1166200D03*
Y1171200D03*
Y1176200D03*
Y1181200D03*
Y1186200D03*
Y1191200D03*
Y1196200D03*
Y1201200D03*
Y1206200D03*
Y1211200D03*
D02*
D160*
X28054Y1415146D03*
Y1417705D03*
Y1420264D03*
Y1422823D03*
Y1425382D03*
Y1427941D03*
Y1430500D03*
X50102Y1415146D03*
Y1417705D03*
Y1420264D03*
Y1422823D03*
Y1425382D03*
Y1427941D03*
Y1430500D03*
D02*
D161*
X236824Y1308700D03*
Y1313700D03*
Y1318700D03*
Y1323700D03*
Y1328700D03*
Y1333700D03*
Y1338700D03*
X258084Y1308700D03*
Y1313700D03*
Y1318700D03*
Y1323700D03*
Y1328700D03*
Y1333700D03*
Y1338700D03*
D02*
D162*
X218855Y1304839D03*
Y1313500D03*
X225548D03*
X225747Y1304839D03*
D02*
D163*
X31377Y1304533D03*
Y1327667D03*
X33936Y1304533D03*
Y1327667D03*
X36495Y1304533D03*
Y1327667D03*
X39054Y1304533D03*
Y1327667D03*
X41613Y1304533D03*
Y1327667D03*
X44172Y1304533D03*
Y1327667D03*
X46731Y1304533D03*
Y1327667D03*
D02*
D164*
X42354Y1188900D03*
X42754Y1198100D03*
X42954Y1180300D03*
Y1212300D03*
X51354Y1188900D03*
X51754Y1198100D03*
X51954Y1180300D03*
Y1212300D03*
X0Y0D02*
M02*
